<svg width="20" height="20" viewBox="0 0 20 20" fill="none" xmlns="http://www.w3.org/2000/svg">
<g clip-path="url(#clip0_38_7783)">
<path d="M10 0C4.47715 0 0 4.47715 0 10C0 15.5229 4.47715 20 10 20C15.5229 20 20 15.5229 20 10C20 4.47715 15.5229 0 10 0ZM15.9288 15.6535C13.0817 18.6393 8.51922 19.0044 5.25434 16.6783L9.67922 12.2534L8.90547 12.2531C8.63437 12.89 8.00695 13.3196 7.28527 13.3196C6.64918 13.3196 6.08672 12.986 5.77652 12.471L3.39676 14.8508C1.0834 11.7094 1.28574 7.2675 4.07113 4.34645C6.94883 1.32863 11.5791 0.987539 14.8505 3.39699L11.4604 6.78715C11.7077 6.86496 11.956 6.99738 12.1814 7.22051L13.4796 8.45297L16.6786 5.25402C18.9114 8.38883 18.6834 12.7648 15.9288 15.6535Z" fill="#F04438"/>
<path d="M16.1634 10.8842L15.9525 10.8846C15.821 10.0373 15.4459 9.72213 15.0775 9.53291C14.6947 9.33639 13.7714 9.17229 13.4856 9.1319L11.8412 7.57092C11.4858 7.2167 11.0397 7.16885 10.6502 7.16885H8.40983C7.8628 7.15908 7.51202 7.6344 7.43858 7.72615L6.38514 8.99221H5.66155C4.69495 8.99221 4.47464 9.61002 4.44792 9.69916C4.42921 9.75342 4.30929 10.2572 4.30929 10.867H4.1769C4.1769 10.867 4.02218 11.763 4.59147 11.763C4.59147 11.763 5.15475 11.7632 6.02823 11.7636C6.12671 12.3692 6.6519 12.8314 7.28526 12.8314C7.91819 12.8314 8.44311 12.3697 8.5421 11.7647C9.48866 11.7651 10.504 11.7656 11.4662 11.766C11.5656 12.3703 12.0903 12.8314 12.7227 12.8314C13.3549 12.8314 13.8792 12.3709 13.9791 11.767C14.9855 11.7674 15.6827 11.7678 15.7719 11.7678C16.3414 11.7678 16.1634 10.8842 16.1634 10.8842ZM7.28526 12.3286C6.93097 12.3286 6.63264 12.0894 6.54237 11.7638C6.52413 11.6981 6.51421 11.6291 6.51421 11.5576C6.51421 11.5091 6.51889 11.4618 6.52745 11.4158C6.59401 11.0578 6.90788 10.7865 7.28522 10.7865C7.6628 10.7865 7.97675 11.058 8.04311 11.4164C8.05159 11.4622 8.0562 11.5093 8.0562 11.5576C8.0562 11.6293 8.04624 11.6986 8.02792 11.7645C7.93749 12.0898 7.63932 12.3286 7.28526 12.3286ZM12.7045 12.3286C12.3509 12.3286 12.0533 12.0906 11.9623 11.7662C11.9436 11.6998 11.9335 11.6299 11.9335 11.5576C11.9335 11.5097 11.938 11.4631 11.9463 11.4177C12.0122 11.0587 12.3264 10.7865 12.7045 10.7865C13.0827 10.7865 13.3971 11.059 13.4627 11.4182C13.4709 11.4635 13.4755 11.51 13.4755 11.5576C13.4755 11.6301 13.4652 11.7002 13.4465 11.7668C13.3553 12.0909 13.0577 12.3286 12.7045 12.3286ZM13.9888 11.4185C13.9195 10.7804 13.3792 10.2837 12.7227 10.2837C12.0665 10.2837 11.5264 10.7799 11.4567 11.4176L8.55112 11.4166C8.48093 10.7794 7.94108 10.2837 7.28526 10.2837C6.62975 10.2837 6.09007 10.779 6.01948 11.4157L5.45577 11.4155L5.32456 11.4155L5.27218 11.4154C5.17003 11.4059 5.00647 11.3493 4.90589 11.29C4.7385 11.1914 4.6571 11.0504 4.6571 10.859C4.6571 10.2787 4.77597 9.93959 4.77694 9.93678L4.77952 9.93119L4.78175 9.92158C4.79147 9.88963 4.93417 9.3401 5.66151 9.3401H6.48628L6.61026 9.27115L7.73897 7.90154C7.74096 7.89768 8.02358 7.50561 8.40983 7.51662H10.6502C10.9851 7.51662 11.3317 7.55322 11.5969 7.8185L13.3274 9.46127L13.383 9.46881C13.6342 9.50291 14.1098 9.58994 14.4858 9.69178L14.5763 10.2596L15.3988 10.2838C15.5378 10.5217 15.6344 10.8727 15.6512 11.419L13.9888 11.4185Z" fill="#F04438"/>
<path d="M10.7475 7.74034H9.88184V9.32023H12.669L11.4449 8.09616C11.1318 7.69765 10.7475 7.74034 10.7475 7.74034Z" fill="#F04438"/>
<path d="M8.04304 7.98219L7.04663 9.32016H9.45476V7.74023H8.64081C8.14265 7.74023 8.04304 7.98219 8.04304 7.98219Z" fill="#F04438"/>
</g>
<defs>
<clipPath id="clip0_38_7783">
<rect width="20" height="20" fill="white"/>
</clipPath>
</defs>
</svg>
