<svg width="60" height="60" viewBox="0 0 60 60" fill="none" xmlns="http://www.w3.org/2000/svg">
<rect width="60" height="60" rx="30" fill="#266FFF"/>
<path fill-rule="evenodd" clip-rule="evenodd" d="M38.4456 29.6391C39.5871 24.7189 44.5972 25.4112 44.3964 29.9721C44.8984 30.7014 45.3318 31.51 45.6595 32.1759C45.6648 32.1759 45.6753 32.1706 45.6806 32.1706C46.0981 32.0437 46.3994 31.4096 46.6002 30.7859C46.7904 29.766 46.8961 28.709 46.8961 27.6309C46.8961 18.266 39.3017 10.6769 29.9422 10.6769C20.5773 10.6769 12.9882 18.2713 12.9882 27.6309C12.9882 28.7143 13.0939 29.7765 13.2841 30.8071C13.485 31.4201 13.7862 32.0437 14.1984 32.1706C14.2037 32.1706 14.2143 32.1759 14.2196 32.1759C14.5472 31.51 14.9806 30.6961 15.488 29.9668C15.2924 25.4059 20.2919 24.7189 21.4388 29.6391C22.1311 32.6198 20.4135 34.5858 18.6272 34.4801C18.68 34.6598 18.7223 34.8395 18.7593 35.0297C18.8809 35.6798 18.8861 36.3457 18.865 37.0063C18.828 38.0315 18.6747 39.3105 18.9971 40.2935L19.0394 40.4203L19.0183 40.5524L19.013 40.5894C21.9672 43.0839 25.7777 44.5848 29.9474 44.5848C34.112 44.5848 37.9277 43.0839 40.8766 40.5894L40.8713 40.5472L40.8502 40.415L40.8925 40.2882C41.2149 39.3052 41.0616 38.0263 41.0246 37.001C40.9929 36.1131 41.0246 35.2675 41.2624 34.4801C39.4708 34.5858 37.7533 32.6198 38.4456 29.6391ZM20.3448 23.218C18.0828 24.1111 15.7839 23.5932 16.8937 20.8186C19.198 16.337 23.6003 13.1132 29.9422 12.9177C36.284 13.1132 40.6864 16.337 42.9906 20.8186C44.1004 23.5985 41.8015 24.1164 39.5395 23.218C36.4479 21.9971 33.2135 21.5374 29.9422 21.3947C26.6761 21.5374 23.4364 21.9971 20.3448 23.218ZM34.3181 28.4553C34.3181 30.8705 32.3574 32.8259 29.9422 32.8259C27.527 32.8259 25.5715 30.8652 25.5715 28.4553C25.5715 26.0401 27.5322 24.0847 29.9422 24.0847C32.3574 24.0847 34.3181 26.0454 34.3181 28.4553ZM38.8049 38.9141C38.1496 40.1402 35.4807 41.62 29.9422 42.1168C24.4036 41.62 21.7347 40.1402 21.0847 38.9141C19.9748 36.5201 22.1892 34.6492 24.467 35.1936C26.7871 35.7485 28.029 35.87 29.9474 35.9017C31.8659 35.87 33.1078 35.7485 35.4279 35.1936C37.7004 34.6492 39.9148 36.5201 38.8049 38.9141Z" fill="white"/>
<path fill-rule="evenodd" clip-rule="evenodd" d="M27.2785 28.4553C27.2785 29.9245 28.4782 31.1189 29.9421 31.1189C31.4113 31.1189 32.6057 29.9192 32.6057 28.4553C32.6057 26.9861 31.406 25.7917 29.9421 25.7917C28.4729 25.7917 27.2785 26.9914 27.2785 28.4553Z" fill="white"/>
<path fill-rule="evenodd" clip-rule="evenodd" d="M17.2901 33.1906C17.919 32.4982 18.2149 31.6527 18.1727 30.6697C20.0277 28.9362 18.6694 28.1963 17.5702 28.7037C16.4656 29.211 15.3664 31.1136 14.5789 32.7519C13.5061 32.9263 12.8349 31.8006 12.4333 29.7871C10.2506 31.0343 9.52127 32.4507 10.7315 34.961C11.6247 36.816 13.7333 39.0779 12.4333 40.8907L9.48956 45.0076C11.5665 47.5708 14.1191 49.7376 17.0047 51.3759C17.4381 47.7346 17.9031 44.1092 18.4528 40.4732C17.7287 38.2588 19.1504 35.3627 17.2901 33.1906Z" fill="white"/>
<path fill-rule="evenodd" clip-rule="evenodd" d="M18.7117 31.4149C18.6271 32.0596 18.3999 32.6621 18.0141 33.1959C18.1674 33.4178 18.2995 33.6557 18.4105 33.8988L18.6589 33.9146C18.7698 33.9199 18.8861 33.9146 18.9971 33.904C19.2455 33.8723 19.478 33.7878 19.6841 33.6715C19.5362 33.5235 19.3512 33.402 19.1292 33.3174C19.3089 32.4296 19.1451 31.8165 18.7117 31.4149Z" fill="white"/>
<path fill-rule="evenodd" clip-rule="evenodd" d="M47.4511 40.8854C46.151 39.0727 48.2596 36.8107 49.1528 34.9557C50.363 32.4454 49.6337 31.029 47.4511 29.7818C47.0494 31.7954 46.3782 32.921 45.3054 32.7466C44.5179 31.1083 43.4187 29.2005 42.3141 28.6984C41.2096 28.1911 39.8567 28.9309 41.7117 30.6644C41.6694 31.6527 41.9653 32.493 42.5942 33.1853C40.7339 35.3627 42.1556 38.2588 41.4316 40.4626C41.9812 44.0986 42.4463 47.7241 42.8796 51.3654C45.7705 49.727 48.3178 47.5655 50.4 44.997L47.4511 40.8854Z" fill="white"/>
<path fill-rule="evenodd" clip-rule="evenodd" d="M40.8872 33.8987C40.9982 33.9146 41.1092 33.9199 41.2201 33.9093L41.4685 33.8935C41.5795 33.6503 41.7063 33.4178 41.8649 33.1906C41.4844 32.6568 41.2518 32.0543 41.1673 31.4095C40.7339 31.8112 40.5701 32.4242 40.7445 33.3068C40.5225 33.3967 40.3376 33.5129 40.1896 33.6609C40.4115 33.7878 40.6388 33.867 40.8872 33.8987Z" fill="white"/>
</svg>
