<svg width="28" height="26" viewBox="0 0 28 26" fill="none" xmlns="http://www.w3.org/2000/svg">
<path d="M3.5 7.1665V22.3332H7V7.1665H3.5ZM9.33333 7.1665V22.3332H12.8333V7.1665H9.33333ZM15.1667 7.1665V22.3332H18.6667V7.1665H15.1667ZM21 7.1665V22.3332H24.5V7.1665H21Z" fill="#1ABC9C"/>
<path d="M4.66665 21.1665C3.37795 21.1665 2.33331 22.2165 2.33331 23.4998V24.6665H14H25.6666V23.4998C25.6666 22.2165 24.6225 21.1665 23.3333 21.1665H14H4.66665Z" fill="#16A085"/>
<path d="M2.33333 22.333C1.04463 22.333 0 23.383 0 24.6663L3.5e-08 25.833H28V24.6663C28 23.383 26.9558 22.333 25.6667 22.333H2.33333Z" fill="#1ABC9C"/>
<path d="M0 24.6665H28V25.8332H0V24.6665Z" fill="#16A085"/>
<path d="M14 0.166504L0 5.99984V7.1665H28V5.99984L14 0.166504Z" fill="#1ABC9C"/>
<path d="M3.5 7.1665H5.25V22.3332H3.5V7.1665Z" fill="#16A085"/>
<path d="M9.33337 7.1665H11.0834V22.3332H9.33337V7.1665Z" fill="#16A085"/>
<path d="M15.1667 7.1665H16.9167V21.1665H15.1667V7.1665Z" fill="#16A085"/>
<path d="M21 7.1665H22.75V21.1665H21V7.1665Z" fill="#16A085"/>
<path d="M2.66143 7.1665C3.06521 7.8665 3.80383 8.33317 4.66669 8.33317H14H23.3334C24.1967 8.33317 24.9352 7.8665 25.3389 7.1665H2.66143Z" fill="#16A085"/>
</svg>
