<svg width="16" height="16" viewBox="0 0 16 16" fill="none" xmlns="http://www.w3.org/2000/svg">
<path opacity="0.2" d="M3.05882 5H12.9412C13.4872 5 14.0109 5.19754 14.397 5.54917C14.7831 5.90081 15 6.37772 15 6.875V12.125C15 12.6223 14.7831 13.0992 14.397 13.4508C14.0109 13.8025 13.4872 14 12.9412 14H3.05882C2.51279 14 1.98912 13.8025 1.60302 13.4508C1.21691 13.0992 1 12.6223 1 12.125L1 6.875C1 6.37772 1.21691 5.90081 1.60302 5.54917C1.98912 5.19754 2.51279 5 3.05882 5Z" fill="#266FFF"/>
<path d="M12.6716 12.4843H1.00771C0.452938 12.4843 0 11.9996 0 11.4046V4.07813C0 3.48313 0.452938 3 1.00771 3H12.6716C13.2279 3 13.6793 3.48313 13.6793 4.07813V11.4046C13.6793 11.9996 13.2264 12.4843 12.6716 12.4843ZM1.00771 3.97275C0.956034 3.97275 0.911956 4.02139 0.911956 4.07813V11.4046C0.911956 11.463 0.956034 11.5116 1.00771 11.5116H12.6716C12.7233 11.5116 12.7674 11.463 12.7674 11.4046V4.07813C12.7674 4.02139 12.7233 3.97275 12.6716 3.97275H1.00771Z" fill="#266FFF"/>
<path d="M6.83959 10.7692C5.27406 10.7692 4.00037 9.41056 4.00037 7.74066C4.00037 6.07077 5.27406 4.71216 6.83959 4.71216C8.40511 4.71216 9.67881 6.07077 9.67881 7.74066C9.67881 9.41056 8.40511 10.7692 6.83959 10.7692ZM6.83959 5.68491C5.77716 5.68491 4.91232 6.60741 4.91232 7.74066C4.91232 8.87392 5.77716 9.79641 6.83959 9.79641C7.90202 9.79641 8.76686 8.87392 8.76686 7.74066C8.76686 6.60741 7.90202 5.68491 6.83959 5.68491Z" fill="#266FFF"/>
<path d="M0.598851 5.95068C0.538054 5.95068 0.475737 5.94744 0.41798 5.94258L0 5.90529V4.07813C0 3.48313 0.452938 3 1.00771 3H2.72219L2.75715 3.44585C2.76171 3.5107 2.76475 3.57555 2.76475 3.6404C2.76475 4.9147 1.79351 5.95068 0.598851 5.95068ZM1.00771 3.97275C0.956034 3.97275 0.911956 4.02139 0.911956 4.07813V4.93578C1.35273 4.81418 1.7008 4.44292 1.81327 3.97275H1.00771Z" fill="#266FFF"/>
<path d="M2.72219 12.4844H1.00771C0.452938 12.4844 0 11.9997 0 11.4047V9.57591L0.4195 9.53862C0.478777 9.53376 0.539574 9.53052 0.598851 9.53052C1.79351 9.53052 2.76475 10.5681 2.76475 11.8424C2.76475 11.9073 2.76171 11.9737 2.75715 12.037L2.72219 12.4844ZM0.911956 10.547V11.4047C0.911956 11.4631 0.956034 11.5117 1.00771 11.5117H1.81327C1.7008 11.0399 1.35273 10.6686 0.911956 10.547Z" fill="#266FFF"/>
<path d="M13.0804 5.95231C11.8858 5.95231 10.9146 4.9147 10.9146 3.6404C10.9146 3.57555 10.9176 3.5107 10.9222 3.44585L10.9571 3H12.6716C13.2279 3 13.6793 3.48313 13.6793 4.07813V5.90691L13.2613 5.9442C13.2036 5.94906 13.1412 5.95231 13.0804 5.95231ZM11.866 3.97275C11.9785 4.44292 12.3266 4.81581 12.7673 4.9374V4.07813C12.7673 4.02139 12.7233 3.97275 12.6716 3.97275H11.866Z" fill="#266FFF"/>
<path d="M12.6716 12.4843H10.9571L10.9222 12.0384C10.9176 11.9736 10.9146 11.9087 10.9146 11.8439C10.9146 10.5696 11.8858 9.53198 13.0804 9.53198C13.1412 9.53198 13.2005 9.53522 13.2598 9.54009L13.6793 9.57738V11.4062C13.6793 11.9995 13.2264 12.4843 12.6716 12.4843ZM11.866 11.5115H12.6716C12.7233 11.5115 12.7673 11.4629 12.7673 11.4045V10.5469C12.3266 10.6685 11.9785 11.0397 11.866 11.5115Z" fill="#266FFF"/>
</svg>
