<svg width="16" height="16" viewBox="0 0 16 16" fill="none" xmlns="http://www.w3.org/2000/svg">
<g clip-path="url(#clip0_42_17646)">
<g clip-path="url(#clip1_42_17646)">
<path d="M12.5764 5.26807C11.6922 5.26807 10.8441 5.61934 10.2188 6.24461C9.59358 6.86988 9.24231 7.71792 9.24231 8.60219C9.24231 10.7787 11.6847 13.4987 12.5788 13.4987C13.4729 13.4987 15.9129 10.7787 15.9129 8.60219C15.9132 8.16406 15.8271 7.73017 15.6595 7.32537C15.4919 6.92056 15.2461 6.55278 14.9362 6.24309C14.6263 5.93339 14.2584 5.68786 13.8534 5.52056C13.4485 5.35325 13.0146 5.26745 12.5764 5.26807ZM12.5764 10.1551C12.2617 10.1556 11.954 10.0627 11.6921 9.88821C11.4302 9.71372 11.226 9.46547 11.1052 9.17486C10.9845 8.88426 10.9527 8.56438 11.0138 8.25568C11.0749 7.94698 11.2262 7.66334 11.4485 7.44066C11.6709 7.21798 11.9543 7.06625 12.2629 7.00469C12.5715 6.94313 12.8914 6.97449 13.1822 7.0948C13.473 7.21512 13.7216 7.41899 13.8964 7.68061C14.0713 7.94223 14.1647 8.24985 14.1647 8.56454C14.1647 8.98598 13.9974 9.3902 13.6996 9.68843C13.4018 9.98665 12.9979 10.1545 12.5764 10.1551Z" fill="#344054"/>
<path d="M12.2495 15.5763H12.1977C5.63298 14.7339 5.44239 14.6751 4.19769 14.3998C2.85651 14.0963 1.81886 13.7527 1.13886 13.3268C0.270628 12.781 -0.00937211 12.181 -0.00937211 11.5927C-0.0105471 11.4076 0.026218 11.2242 0.0986556 11.0538C0.171093 10.8835 0.277667 10.7297 0.411804 10.6021C0.703504 10.3389 1.04632 10.1387 1.41886 10.0139C2.17651 9.72213 3.50827 9.52919 4.37416 9.38331C5.85416 9.13625 7.76239 8.88213 7.76239 7.97155C7.76239 7.75272 7.50122 7.42802 7.05651 7.24684C6.40526 7.03906 5.73898 6.88173 5.06357 6.77625C5.04549 6.77362 5.02811 6.76746 5.01242 6.75812C4.99672 6.74878 4.98302 6.73643 4.9721 6.72179C4.96117 6.70715 4.95324 6.69051 4.94875 6.6728C4.94425 6.6551 4.9433 6.63668 4.94592 6.6186C4.94855 6.60053 4.95471 6.58315 4.96405 6.56745C4.9734 6.55176 4.98574 6.53806 5.00038 6.52713C5.01502 6.51621 5.03167 6.50827 5.04937 6.50378C5.06708 6.49929 5.08549 6.49833 5.10357 6.50096C5.98828 6.58331 8.24239 6.90566 8.24239 7.99507C8.2496 8.14631 8.22145 8.29715 8.16019 8.43561C8.09892 8.57407 8.00622 8.69634 7.88945 8.79272C7.61947 9.02193 7.30679 9.19546 6.96945 9.30331C6.15448 9.57415 5.31765 9.77411 4.46828 9.90096C3.60586 10.0292 2.75688 10.2355 1.9318 10.5174C0.990628 10.8727 0.927098 11.2821 0.927098 11.5598C0.927098 11.9245 1.17651 12.3151 1.78827 12.6563C2.40004 12.9974 3.13416 13.2092 4.41886 13.4892C5.75298 13.7786 7.51769 13.9457 12.3012 14.3857C12.4591 14.3925 12.6078 14.4618 12.7146 14.5783C12.8214 14.6948 12.8775 14.849 12.8706 15.0068C12.8638 15.1647 12.7945 15.3134 12.678 15.4202C12.5615 15.527 12.4073 15.5831 12.2495 15.5763Z" fill="#344054"/>
<path d="M6.81412 3.78597L6.16706 2.39303C6.09647 2.27774 6.03765 2.13185 5.43765 2.02832C5.40942 2.02832 5.37883 2.02832 5.35059 2.01421C5.57495 1.9221 5.76037 1.75497 5.8752 1.54135C5.99003 1.32773 6.02715 1.08088 5.98021 0.842939C5.93327 0.604999 5.80518 0.390733 5.61783 0.236729C5.43048 0.0827255 5.19547 -0.00146484 4.95295 -0.00146484C4.71042 -0.00146484 4.47542 0.0827255 4.28806 0.236729C4.10071 0.390733 3.97263 0.604999 3.92569 0.842939C3.87875 1.08088 3.91586 1.32773 4.03069 1.54135C4.14552 1.75497 4.33094 1.9221 4.5553 2.01421L4.46589 2.02832C3.86824 2.13185 3.80706 2.27774 3.73648 2.39303L3.08942 3.78597C3.07005 3.82407 3.05857 3.86567 3.05567 3.90831C3.05276 3.95094 3.05849 3.99373 3.0725 4.0341C3.08652 4.07447 3.10854 4.11159 3.13724 4.14325C3.16594 4.17491 3.20074 4.20046 3.23954 4.21836C3.27835 4.23625 3.32036 4.24614 3.36308 4.24742C3.40579 4.24869 3.44833 4.24134 3.48813 4.22579C3.52794 4.21025 3.5642 4.18683 3.59474 4.15694C3.62528 4.12706 3.64948 4.09131 3.66589 4.05185L4.10589 3.13185V5.72009C4.10589 5.81993 4.14555 5.91569 4.21615 5.98629C4.28675 6.0569 4.38251 6.09656 4.48236 6.09656C4.5822 6.09656 4.67796 6.0569 4.74856 5.98629C4.81916 5.91569 4.85883 5.81993 4.85883 5.72009V4.70126C4.86774 4.68398 4.88123 4.66949 4.89783 4.65936C4.91443 4.64924 4.9335 4.64389 4.95295 4.64389C4.97239 4.64389 4.99146 4.64924 5.00806 4.65936C5.02466 4.66949 5.03816 4.68398 5.04706 4.70126V5.7295C5.04706 5.82935 5.08673 5.9251 5.15733 5.9957C5.22793 6.06631 5.32369 6.10597 5.42353 6.10597C5.52338 6.10597 5.61914 6.06631 5.68974 5.9957C5.76034 5.9251 5.8 5.82935 5.8 5.7295V3.14126L6.22824 4.06126C6.24465 4.10072 6.26884 4.13647 6.29939 4.16636C6.32993 4.19624 6.36619 4.21966 6.406 4.23521C6.4458 4.25075 6.48833 4.25811 6.53105 4.25683C6.57376 4.25555 6.61578 4.24567 6.65459 4.22777C6.69339 4.20987 6.72819 4.18433 6.75689 4.15267C6.78559 4.12101 6.80761 4.08388 6.82162 4.04351C6.83564 4.00314 6.84137 3.96036 6.83846 3.91772C6.83555 3.87509 6.82408 3.83348 6.80471 3.79538L6.81412 3.78597Z" fill="#344054"/>
</g>
</g>
<defs>
<clipPath id="clip0_42_17646">
<rect width="16" height="16" fill="white"/>
</clipPath>
<clipPath id="clip1_42_17646">
<rect width="16" height="16" fill="white"/>
</clipPath>
</defs>
</svg>
