<svg width="63" height="63" viewBox="0 0 63 63" fill="none" xmlns="http://www.w3.org/2000/svg">
<rect width="63" height="63" rx="8" fill="#E8EEFB"/>
<g filter="url(#filter0_f_38_6755)">
<path d="M47.3763 49.9025C49.6749 49.2086 53.8596 47.3124 55.3636 45.909C57.0978 44.44 54.2218 42.6706 53.795 42.4229C53.3682 42.1753 25.9866 28.5271 22.3283 26.9173C18.6701 25.3075 9.30901 30.9799 6.50399 32.537C4.21755 33.8063 5.8333 34.704 6.13816 34.9517C6.44302 35.1994 27.3776 46.0328 33.6577 49.0047C38.4136 51.2554 42.8644 51.2646 47.3763 49.9025Z" fill="black" fill-opacity="0.2"/>
</g>
<path d="M27.4561 36.4296L28.9894 39.7881C29.1173 40.3845 29.3156 41.0003 29.5888 41.6126C29.8845 42.2753 30.2424 42.8748 30.6359 43.3966L32.138 46.6909L34.8632 45.4251C34.8791 45.4184 34.8957 45.4134 34.9115 45.4063C36.5817 44.6568 36.907 41.743 35.6381 38.8987C34.369 36.0543 31.9857 34.3554 30.3154 35.105C30.297 35.1132 30.2792 35.123 30.2611 35.1318L30.2599 35.1291L27.4561 36.4296Z" fill="#2E2E2E"/>
<ellipse cx="3.31627" cy="5.63295" rx="3.31627" ry="5.63295" transform="matrix(-0.911976 0.409256 0.40762 0.913593 30.5605 35.0452)" fill="#2E2E2E"/>
<g filter="url(#filter1_i_38_6755)">
<ellipse cx="2.48732" cy="4.22491" rx="2.48732" ry="4.22491" transform="matrix(-0.911976 0.409256 0.40762 0.913593 30.283 36.6733)" fill="url(#paint0_linear_38_6755)"/>
</g>
<g filter="url(#filter2_di_38_6755)">
<path d="M29.8727 44.6842C30.3272 44.8943 30.7789 44.9334 31.1688 44.7584C31.2194 44.7357 31.2676 44.7092 31.3142 44.6803L30.2494 42.8325C30.1327 42.8717 30.0042 42.867 29.8727 42.8217L29.8727 44.6842ZM28.6488 43.6865C28.973 44.0778 29.3297 44.3853 29.6911 44.5884L29.6911 42.7347C29.577 42.666 29.4643 42.5709 29.3593 42.4533L28.6488 43.6865ZM30.6417 42.2638C30.6113 42.4699 30.5321 42.6383 30.4075 42.7435L31.4616 44.5737C31.8295 44.2649 32.0418 43.7401 32.0911 43.1041L30.6417 42.2638ZM27.7763 42.209C27.8015 42.2711 27.8247 42.3346 27.8524 42.3966C28.0418 42.8212 28.2733 43.2037 28.5268 43.535L29.2373 42.2999C29.1513 42.1813 29.0726 42.0474 29.007 41.9003C29.004 41.8936 29.0021 41.8864 28.9992 41.8797L27.7763 42.209ZM30.5539 41.4625C30.6227 41.6714 30.6554 41.8764 30.6554 42.0625L32.1028 42.9009C32.1147 42.3583 32.0126 41.7488 31.7914 41.1303L30.5539 41.4625ZM27.3742 40.373C27.3851 40.8913 27.4936 41.4629 27.708 42.04L28.9328 41.7107C28.874 41.54 28.8391 41.3716 28.8264 41.2133L27.3742 40.373ZM30.265 40.8791C30.3411 40.9889 30.4108 41.111 30.47 41.2436C30.477 41.2595 30.4838 41.2756 30.4905 41.2915L31.728 40.9593C31.6948 40.8747 31.6603 40.7897 31.6226 40.7052C31.4434 40.3035 31.2275 39.9393 30.9902 39.6206L30.265 40.8791ZM27.8592 38.6815C27.5585 39.0286 27.394 39.5505 27.3742 40.1619L28.8235 41.0013C28.8329 40.8295 28.8712 40.6774 28.9396 40.5576L27.8592 38.6815ZM29.8727 40.4668C29.967 40.5353 30.0586 40.6223 30.145 40.7238L30.8701 39.4642C30.5611 39.081 30.2195 38.7748 29.8727 38.5633L29.8727 40.4668ZM29.6911 38.4636C29.2067 38.216 28.7217 38.157 28.3062 38.3434C28.1909 38.3952 28.0866 38.4646 27.992 38.5476L29.0626 40.4062C29.0989 40.3746 29.1385 40.3479 29.1827 40.328C29.3354 40.2595 29.513 40.2747 29.6911 40.3583L29.6911 38.4636Z" fill="#4C4C4C"/>
</g>
<path d="M27.4565 36.3702L28.9874 39.7233C29.1152 40.3215 29.3141 40.9392 29.5881 41.5536C29.8848 42.2186 30.2439 42.8201 30.639 43.3432L32.1383 46.6313L34.8623 45.366C34.8781 45.3594 34.8949 45.3543 34.9106 45.3473C36.5806 44.5975 36.9059 41.6839 35.6371 38.8398C34.3681 35.9955 31.9849 34.2968 30.3146 35.0461C30.2968 35.054 30.2795 35.0636 30.2621 35.0721L30.2609 35.0694L27.4565 36.3702Z" fill="#2E2E2E"/>
<path d="M26.7881 42.9058C28.0562 45.748 30.4382 47.4444 32.1085 46.6948C33.7788 45.9453 34.1049 43.0336 32.8368 40.1914C31.5687 37.3492 29.1149 35.4998 27.4446 36.2493C25.7743 36.9989 25.5199 40.0636 26.7881 42.9058Z" fill="#2E2E2E"/>
<g filter="url(#filter3_i_38_6755)">
<ellipse cx="2.3313" cy="4.07414" rx="2.3313" ry="4.07414" transform="matrix(-0.939744 0.342056 0.316393 0.948614 30.6699 36.8887)" fill="url(#paint1_linear_38_6755)"/>
</g>
<g filter="url(#filter4_di_38_6755)">
<path d="M28.2535 42.4352C28.7482 43.668 29.6243 44.4868 30.3975 44.4673L29.8799 42.9534C29.5963 42.8622 29.3086 42.5727 29.1057 42.1646L28.2535 42.4352ZM30.6651 41.6695C30.7438 42.1732 30.6486 42.6212 30.4151 42.8414L30.9161 44.3087C31.5801 43.8873 31.8223 42.6955 31.5122 41.4004L30.6651 41.6695ZM28.4886 38.8792C27.8856 39.3952 27.7072 40.6268 28.0782 41.9205L28.9173 41.6537C28.7907 41.1544 28.8299 40.6828 29.0061 40.395L28.4886 38.8792ZM31.3591 40.8769C30.8543 39.4401 29.8315 38.4921 28.9805 38.6418L29.4823 40.1111C29.8626 40.1202 30.2876 40.5335 30.5231 41.1431L31.3591 40.8769Z" fill="#A9A8A8"/>
</g>
<path d="M7.83385 28.1815L8.98475 30.7018C9.08061 31.1473 9.22611 31.6079 9.4301 32.0651C9.65177 32.5619 9.92156 33.0099 10.2166 33.401L11.3415 35.8687L13.3992 34.9131C13.405 34.9105 13.4116 34.9085 13.4174 34.9059C14.6683 34.344 14.9119 32.1619 13.9613 30.0312C13.0106 27.9004 11.2249 26.6281 9.97365 27.1896C9.96056 27.1955 9.94782 27.2021 9.93496 27.2083L9.93455 27.2074L7.83385 28.1815Z" fill="#2E2E2E"/>
<ellipse cx="2.48435" cy="4.21986" rx="2.48435" ry="4.21986" transform="matrix(-0.945518 0.324327 0.32255 0.946978 10.6011 27.2148)" fill="#2E2E2E"/>
<g filter="url(#filter5_i_38_6755)">
<ellipse cx="1.86335" cy="3.16505" rx="1.86335" ry="3.16505" transform="matrix(-0.911976 0.409256 0.40762 0.913593 9.95078 28.3645)" fill="url(#paint2_linear_38_6755)"/>
</g>
<g filter="url(#filter6_di_38_6755)">
<path d="M9.68729 34.3846C10.0124 34.5241 10.3334 34.547 10.6125 34.4217C10.6362 34.4111 10.6573 34.3961 10.6799 34.3836L9.87761 32.9912C9.81684 33.003 9.75303 32.9991 9.68729 32.9824L9.68729 34.3846ZM8.75524 33.6547C8.99015 33.9308 9.24614 34.1489 9.50576 34.2947L9.50576 32.9013C9.43185 32.8565 9.35926 32.7978 9.29007 32.7254L8.75524 33.6547ZM10.2075 32.5993C10.1802 32.7326 10.1255 32.8414 10.0416 32.912L10.8302 34.281C11.0959 34.0579 11.2556 33.6862 11.2996 33.2325L10.2075 32.5993ZM8.08768 32.5534C8.10131 32.586 8.11317 32.6195 8.12769 32.6521C8.26942 32.9698 8.44263 33.2562 8.63227 33.5042L9.1671 32.5769C9.10825 32.4955 9.05336 32.4055 9.00704 32.3062L8.08768 32.5534ZM10.1655 31.9955C10.2078 32.1367 10.2269 32.2746 10.227 32.401L11.3123 33.0303C11.321 32.636 11.2491 32.1944 11.0937 31.7453L10.1655 31.9955ZM7.76951 31.1883C7.78365 31.5624 7.8672 31.9707 8.02034 32.3834L8.9397 32.1362C8.90301 32.0294 8.87904 31.9244 8.8665 31.8235L7.76951 31.1883ZM9.96252 31.5587C10.0084 31.6296 10.0525 31.7057 10.0894 31.7883C10.0945 31.7998 10.0982 31.812 10.1031 31.8235L11.0312 31.5743C11.0064 31.5113 10.9802 31.4477 10.9521 31.3847C10.8252 31.1003 10.6734 30.8411 10.5071 30.6118L9.96252 31.5587ZM8.10134 29.9063C7.89579 30.1658 7.7836 30.5418 7.76951 30.9782L8.85772 31.6085C8.86335 31.5022 8.88232 31.4061 8.91823 31.3251L8.10134 29.9063ZM9.68729 31.245C9.74153 31.2895 9.79416 31.3413 9.84442 31.4004L10.388 30.4555C10.1704 30.1857 9.93101 29.9675 9.68729 29.8106L9.68729 31.245ZM9.50576 29.706C9.14276 29.5204 8.77963 29.4764 8.46831 29.6161C8.38157 29.655 8.30317 29.707 8.23212 29.7695L9.03339 31.162C9.061 31.1377 9.09143 31.1175 9.12513 31.1023C9.23965 31.051 9.37225 31.063 9.50576 31.1258L9.50576 29.706Z" fill="#4C4C4C"/>
</g>
<path d="M7.83238 28.1371L8.98468 30.6605C9.08057 31.1048 9.22588 31.5641 9.42933 32.0201C9.65056 32.5159 9.91952 32.9632 10.2139 33.3538L11.3402 35.8246L13.3999 34.8681C13.4052 34.8657 13.411 34.8641 13.4163 34.8617C14.6675 34.3 14.911 32.117 13.9603 29.9863C13.0096 27.8556 11.2246 26.5833 9.97334 27.1447C9.96 27.1506 9.94684 27.1574 9.93374 27.1638L9.93333 27.1629L7.83238 28.1371Z" fill="#2E2E2E"/>
<path d="M7.0862 32.6459C7.64987 34.9083 9.29882 36.4425 10.7692 36.0728C12.2396 35.7031 12.9747 33.5694 12.411 31.307C11.8473 29.0447 10.1653 27.3882 8.69489 27.758C7.22448 28.1277 6.52253 30.3836 7.0862 32.6459Z" fill="#2E2E2E"/>
<g filter="url(#filter7_i_38_6755)">
<ellipse cx="1.74647" cy="3.05209" rx="1.74647" ry="3.05209" transform="matrix(-0.963522 0.267857 0.241582 0.970366 10.3503 28.717)" fill="url(#paint3_linear_38_6755)"/>
</g>
<g filter="url(#filter8_di_38_6755)">
<path d="M8.26984 32.8499C8.55272 33.6515 9.0563 34.2248 9.56128 34.3424L9.24155 33.1002C9.12576 33.0057 9.02067 32.8655 8.93489 32.6943L8.26984 32.8499ZM10.0748 32.4279C10.0737 32.7484 9.97874 33.0171 9.81493 33.1493L10.1041 34.2755C10.6013 34.0127 10.8535 33.2026 10.7399 32.2723L10.0748 32.4279ZM8.49206 30.1803C8.09659 30.585 7.94051 31.4221 8.12488 32.3254L8.76735 32.175C8.71862 31.8922 8.73821 31.6278 8.81229 31.4256L8.49206 30.1803ZM10.6361 31.7379C10.3428 30.6351 9.63415 29.8672 8.98972 29.9295L9.27876 31.0566C9.56176 31.0868 9.85272 31.4199 9.99267 31.8881L10.6361 31.7379Z" fill="#A9A8A8"/>
</g>
<g filter="url(#filter9_ii_38_6755)">
<path d="M5.94142 30.8136C5.95735 31.0202 6.02311 31.2043 6.11954 31.3662C6.30328 31.6745 6.74773 31.5077 6.80183 31.1529C6.83005 30.9678 6.86453 30.7277 6.90701 30.4129C7.14706 28.634 8.40625 27.949 9.17102 28.1163C10.0403 28.3064 10.8186 29.0247 11.2861 30.2253C11.6607 31.1876 11.8873 31.7338 12.1647 33.8987C12.1762 33.9885 12.2101 34.066 12.2859 34.1156C13.5956 34.9736 26.3044 41.4296 26.2616 41.2756C26.145 40.8556 26.1421 38.8687 26.5604 37.8999C27.3819 35.9969 28.6643 36.1784 29.3535 36.2837C30.0842 36.3953 31.782 37.2865 32.6635 39.0799C34.0616 41.9239 33.714 43.8556 34.0616 44.8719C34.1756 45.2053 39.7355 47.3109 41.7128 47.8069C46.6569 49.2804 53.64 44.2607 54.9572 43.2885C56.2743 42.3163 56.3815 39.4576 56.1879 36.2837C56.1908 34.4287 55.7937 33.4671 55.5097 33.171C54.1562 31.7604 50.9518 29.4759 48.8898 28.3637C48.8417 28.3377 48.7977 28.303 48.7607 28.2627C43.7404 22.7865 43.4181 22.1022 41.6862 21.2606C38.1623 19.5481 23.8141 13.722 20.6593 13.722C18.7952 13.722 12.2324 15.8415 10.4597 17.1926C9.06107 18.2587 7.72053 20.6158 7.00256 22.1706C6.98264 22.2137 6.96983 22.2576 6.96376 22.3048C6.82244 23.4022 6.55253 26.5442 6.26899 26.8517C5.90674 27.2446 5.89323 30.1886 5.94142 30.8136Z" fill="url(#paint4_linear_38_6755)"/>
</g>
<mask id="mask0_38_6755" style="mask-type:alpha" maskUnits="userSpaceOnUse" x="5" y="13" width="52" height="36">
<path d="M5.94113 30.8136C5.95706 31.0202 6.02282 31.2043 6.11925 31.3661C6.30298 31.6745 6.72975 31.5046 6.78017 31.1492C6.80598 30.9672 6.83847 30.7325 6.87975 30.4265C7.1198 28.6477 8.40596 27.949 9.17072 28.1163C10.04 28.3064 10.8183 29.0247 11.2858 30.2253C11.6604 31.1876 11.887 31.7338 12.1644 33.8986C12.1759 33.9885 12.2098 34.066 12.2856 34.1156C13.5953 34.9736 26.3041 41.4296 26.2613 41.2756C26.1447 40.8555 26.1418 38.8686 26.5601 37.8999C27.3816 35.9969 28.664 36.1784 29.3532 36.2837C30.0839 36.3953 31.7817 37.2865 32.6632 39.0799C34.0613 41.9238 33.7137 43.8555 34.0613 44.8718C34.1753 45.2053 39.7352 47.3109 41.7125 47.8069C46.6566 49.2803 53.6397 44.2606 54.9569 43.2885C56.274 42.3163 56.3812 39.4576 56.1876 36.2837C56.1905 34.4287 55.7934 33.467 55.5094 33.171C54.1559 31.7603 50.9515 29.4759 48.8895 28.3637C48.8414 28.3377 48.7974 28.303 48.7604 28.2627C43.7391 22.7864 43.2758 22.089 40.7566 20.8648C37.2328 19.1523 23.8138 13.722 20.659 13.722C18.7949 13.722 12.2321 15.8415 10.4595 17.1926C9.06078 18.2587 7.72023 20.6158 7.00226 22.1706C6.98234 22.2137 6.96953 22.2576 6.96346 22.3048C6.82215 23.4021 6.55223 26.5442 6.2687 26.8517C5.90645 27.2446 5.89294 30.1886 5.94113 30.8136Z" fill="url(#paint5_linear_38_6755)"/>
</mask>
<g mask="url(#mask0_38_6755)">
<g filter="url(#filter10_ddii_38_6755)">
<path d="M45.2656 39.8831C44.0628 39.9695 41.9541 40.1996 39.7703 39.1857C39.4351 39.03 38.8659 39.5402 39.0342 39.8693C39.3764 40.5384 39.7497 41.1687 40.1015 41.3523C40.9503 41.7953 43.3824 42.6277 45.7161 42.2122C45.7322 42.2093 45.7486 42.2071 45.7649 42.2087C46.0217 42.2328 46.644 42.7148 47.1975 42.9281C48.0816 43.1737 51.9519 41.0729 52.9275 40.5216C54.9871 39.3577 55.6908 38.5046 55.8005 38.2787C55.9718 37.9258 55.8564 37.1966 55.8905 36.969C55.9173 36.7903 56.0788 36.4178 56.1469 36.2661C56.1666 36.2221 56.1772 36.175 56.1765 36.1268C56.1732 35.8933 56.1522 35.1424 56.0214 34.5326C56.0163 34.5088 56.0137 34.4844 56.0134 34.4601C56.0032 33.2851 55.5057 32.4897 55.5058 33.1054C55.5058 33.9553 55.2875 34.9751 54.6765 35.4718C54.6566 35.4879 54.6372 35.5045 54.616 35.5188C54.0882 35.8761 47.0721 39.7533 45.2656 39.8831Z" fill="#2E2E2E"/>
</g>
<mask id="mask1_38_6755" style="mask-type:alpha" maskUnits="userSpaceOnUse" x="38" y="32" width="19" height="11">
<path d="M45.2656 39.8831C43.991 39.9747 41.6989 40.2276 39.3784 38.9904C39.1296 38.8577 38.7141 39.224 38.8383 39.4772C39.2302 40.276 39.6813 41.133 40.1015 41.3523C40.951 41.7956 43.3864 42.629 45.7219 42.2111C45.7342 42.2089 45.7465 42.2073 45.7589 42.2082C46.0119 42.2252 46.6397 42.7131 47.1975 42.9281C48.0816 43.1737 51.9519 41.0729 52.9275 40.5216C54.9871 39.3577 55.7809 38.4391 55.8905 38.2132C56.0619 37.8603 55.8564 37.1556 55.8905 36.9281C55.9178 36.7458 56.0852 36.3883 56.1508 36.2531C56.168 36.2176 56.1772 36.1795 56.1767 36.1401C56.1739 35.9222 56.1546 35.1475 56.0196 34.5241C56.0156 34.5059 56.0136 34.4873 56.0135 34.4688C56.0057 33.289 55.5057 32.4882 55.5058 33.1054C55.5058 33.9585 55.2858 34.9829 54.6694 35.4775C54.6542 35.4897 54.6428 35.5 54.6269 35.5113C54.1946 35.8173 47.0857 39.7523 45.2656 39.8831Z" fill="#211F1F"/>
</mask>
<g mask="url(#mask1_38_6755)">
<g filter="url(#filter11_d_38_6755)">
<path d="M55.4169 33.4472C55.4169 33.4472 56.0207 34.1807 55.6478 34.98C55.5357 35.2203 55.2231 35.4974 54.9732 35.3158C54.7872 35.1806 54.2781 35.1165 54.2781 35.1165L55.4169 33.4472Z" fill="#FAED47"/>
<path d="M55.4151 33.6826C55.4577 33.7548 55.5076 33.8489 55.5484 33.9598C55.6451 34.2225 55.695 34.5669 55.5283 34.9242C55.4819 35.0237 55.3922 35.1321 55.2931 35.1938C55.1961 35.2541 55.1161 35.2567 55.0503 35.2088C54.9877 35.1635 54.906 35.1291 54.8282 35.1027C54.7481 35.0756 54.6618 35.054 54.5838 35.0369C54.5557 35.0308 54.5281 35.026 54.5022 35.021L55.4151 33.6826Z" stroke="white" stroke-opacity="0.9" stroke-width="0.263708"/>
</g>
<g filter="url(#filter12_d_38_6755)">
<path d="M45.6234 39.3794C45.6234 39.3794 46.2738 40.8123 44.1908 41.0917C43.5646 41.1757 42.4731 41.0845 41.7577 40.5143C41.3645 40.2008 40.8216 39.3071 40.8216 39.3071L45.6234 39.3794Z" fill="#FAED47"/>
<path d="M45.563 39.6339C45.5889 39.7604 45.6028 39.9272 45.5603 40.0985C45.5184 40.2671 45.4207 40.4458 45.2145 40.6003C45.0059 40.7564 44.679 40.8936 44.1729 40.9615C43.8741 41.0016 43.4591 40.9998 43.0326 40.9189C42.6053 40.8379 42.1753 40.6788 41.8396 40.4112C41.6596 40.2677 41.4358 39.9805 41.2505 39.7172C41.1795 39.6164 41.1169 39.5205 41.0656 39.442L45.5303 39.5094C45.5408 39.5424 45.5529 39.5846 45.563 39.6339Z" stroke="white" stroke-opacity="0.9" stroke-width="0.263708"/>
</g>
<g filter="url(#filter13_ddii_38_6755)">
<path d="M45.2658 39.8831C44.063 39.9695 41.9543 40.1996 39.7705 39.1857C39.4353 39.03 38.8661 39.5402 39.0344 39.8693C39.3766 40.5384 39.75 41.1687 40.1018 41.3523C40.9505 41.7953 43.3826 42.6277 45.7163 42.2122C45.7325 42.2093 45.7488 42.2071 45.7651 42.2087C46.0219 42.2328 46.6442 42.7148 47.1977 42.9281C48.0818 43.1737 51.9521 41.0729 52.9277 40.5216C54.9873 39.3577 55.691 38.5046 55.8007 38.2787C55.972 37.9258 55.8567 37.1966 55.8908 36.969C55.9175 36.7903 56.079 36.4178 56.1471 36.2661C56.1668 36.2221 56.1774 36.175 56.1767 36.1268C56.1734 35.8933 56.1524 35.1424 56.0216 34.5326C56.0165 34.5088 56.0139 34.4844 56.0137 34.4601C56.0034 33.2851 55.5059 32.4897 55.506 33.1054C55.506 33.9553 55.2877 34.9751 54.6767 35.4718C54.6569 35.4879 54.6374 35.5045 54.6162 35.5188C54.0885 35.8761 47.0723 39.7533 45.2658 39.8831Z" fill="#ABB7C2"/>
</g>
<mask id="mask2_38_6755" style="mask-type:alpha" maskUnits="userSpaceOnUse" x="38" y="32" width="19" height="11">
<path d="M45.2658 39.8831C43.9912 39.9747 41.6991 40.2276 39.3786 38.9904C39.1298 38.8577 38.7143 39.224 38.8385 39.4772C39.2304 40.276 39.6815 41.133 40.1018 41.3523C40.9512 41.7956 43.3866 42.629 45.7221 42.2111C45.7344 42.2089 45.7467 42.2073 45.7591 42.2082C46.0121 42.2252 46.6399 42.7131 47.1977 42.9281C48.0818 43.1737 51.9521 41.0729 52.9277 40.5216C54.9873 39.3577 55.7811 38.4391 55.8908 38.2132C56.0621 37.8603 55.8567 37.1556 55.8908 36.9281C55.9181 36.7458 56.0854 36.3883 56.151 36.2531C56.1682 36.2176 56.1774 36.1795 56.1769 36.1401C56.1741 35.9222 56.1548 35.1475 56.0198 34.5241C56.0159 34.5059 56.0138 34.4873 56.0137 34.4688C56.0059 33.289 55.5059 32.4882 55.506 33.1054C55.506 33.9585 55.286 34.9829 54.6696 35.4775C54.6544 35.4897 54.643 35.5 54.6271 35.5113C54.1948 35.8173 47.0859 39.7523 45.2658 39.8831Z" fill="#211F1F"/>
</mask>
<g mask="url(#mask2_38_6755)">
<g filter="url(#filter14_ddii_38_6755)">
<path d="M45.2658 39.8831C44.0629 39.9695 41.9538 40.1997 39.7698 39.1853C39.4347 39.0297 38.8658 39.5397 39.034 39.8686C39.3763 40.538 39.7498 41.1687 40.1018 41.3523C40.9505 41.7953 43.3826 42.6277 45.7163 42.2122C45.7325 42.2093 45.7488 42.2071 45.7651 42.2087C46.0219 42.2328 46.6442 42.7148 47.1977 42.9281C48.0818 43.1737 51.9521 41.0729 52.9277 40.5216C54.9873 39.3577 55.6501 38.5292 55.7598 38.3033C55.9311 37.9504 55.8157 37.1638 55.8498 36.9363C55.8757 36.7633 56.0515 36.4276 56.1343 36.2765C56.1622 36.2257 56.1774 36.1694 56.1765 36.1115C56.1725 35.862 56.1497 35.1296 56.0216 34.5326C56.0165 34.5088 56.0139 34.4844 56.0137 34.4601C56.0034 33.2851 55.5059 32.4897 55.506 33.1054C55.506 33.9553 55.2877 34.9751 54.6767 35.4718C54.6569 35.4879 54.6374 35.5044 54.6163 35.5188C54.0886 35.876 47.0723 39.7533 45.2658 39.8831Z" fill="#DADADA"/>
</g>
<g filter="url(#filter15_d_38_6755)">
<path d="M55.4153 33.6826C55.4579 33.7548 55.5078 33.8489 55.5486 33.9598C55.6454 34.2225 55.6952 34.5669 55.5285 34.9242C55.4821 35.0237 55.3924 35.1321 55.2933 35.1938C55.1963 35.2541 55.1163 35.2567 55.0505 35.2088C54.9879 35.1635 54.9063 35.1291 54.8284 35.1027C54.7483 35.0756 54.662 35.054 54.584 35.0369C54.5559 35.0308 54.5284 35.026 54.5024 35.021L55.4153 33.6826Z" stroke="white" stroke-opacity="0.9" stroke-width="0.263708"/>
</g>
<g filter="url(#filter16_d_38_6755)">
<path d="M45.5632 39.6339C45.5891 39.7604 45.603 39.9272 45.5605 40.0985C45.5186 40.2671 45.4209 40.4458 45.2148 40.6003C45.0062 40.7564 44.6793 40.8936 44.1731 40.9615C43.8743 41.0016 43.4593 40.9998 43.0328 40.9189C42.6055 40.8379 42.1755 40.6788 41.8398 40.4112C41.6598 40.2677 41.4361 39.9805 41.2507 39.7172C41.1797 39.6164 41.1171 39.5205 41.0658 39.442L45.5305 39.5094C45.541 39.5424 45.5531 39.5846 45.5632 39.6339Z" stroke="white" stroke-opacity="0.9" stroke-width="0.263708"/>
</g>
</g>
</g>
<g filter="url(#filter17_ddi_38_6755)">
<path d="M34.8882 34.1335C33.6882 33.637 32.2814 29.4734 30.7961 26.8059C30.6378 26.5218 30.7585 26.1581 31.0605 26.0372L41.9126 21.6907C42.0429 21.6385 42.186 21.6443 42.3 21.7264C42.7353 22.0398 44.0354 23.1408 47.1397 26.8026C48.1426 27.9855 48.2904 28.1325 48.7922 28.6822C48.8668 28.7639 48.5994 29.1524 48.3383 29.3676C47.2641 30.2528 37.8411 35.3554 34.8882 34.1335Z" fill="url(#paint6_linear_38_6755)"/>
</g>
<g filter="url(#filter18_f_38_6755)">
<path d="M39.1616 38.1885C36.4511 37.0285 34.9016 35.5155 33.2479 34.1398C38.086 35.4141 48.2168 38.2166 48.0657 38.4238C47.8769 38.6828 47.1653 39.005 44.7753 39.2398C42.4223 39.471 39.472 38.3213 39.1616 38.1885Z" fill="url(#paint7_linear_38_6755)" fill-opacity="0.21"/>
</g>
<path d="M43.9928 31.8016L35.1469 24.324C34.3243 24.6678 31.7249 25.7469 31.3435 25.8901C30.8494 26.0756 30.6379 26.2343 30.6379 26.2343C30.5433 26.3289 30.4751 26.2347 30.6379 26.5268C30.9305 27.0517 31.3498 27.9205 31.9545 29.203C33.0215 31.4661 34.0362 33.9299 34.9576 34.2024C36.1795 34.5638 38.1615 34.0784 39.7419 33.5571C41.1546 33.091 42.945 32.2273 43.9928 31.8016Z" fill="#C4C4C4" fill-opacity="0.2"/>
<g filter="url(#filter19_di_38_6755)">
<path d="M9.72574 19.3129C10.4598 18.0744 10.5349 17.6258 10.0662 17.5527C9.44462 17.892 7.61675 20.4195 7.30602 21.5718C7.24704 21.7905 7.71305 21.7164 8.22364 21.3559C8.73423 20.9954 8.80815 20.8611 9.72574 19.3129Z" fill="url(#paint8_linear_38_6755)"/>
</g>
<g filter="url(#filter20_f_38_6755)">
<path d="M8.97405 26.0036L8.83884 25.9348C8.88436 25.9566 8.92943 25.9795 8.97405 26.0036L27.7139 35.5328C27.8622 35.6083 27.8572 35.8311 27.714 35.9158C27.0883 36.286 26.1238 37.1193 26.0075 38.6821C25.9968 38.8268 25.843 38.9219 25.7135 38.8565L12.4219 32.1471C12.3535 32.1126 12.3121 32.0434 12.3069 31.967C12.2388 30.9711 11.1316 27.1671 8.97405 26.0036Z" fill="url(#paint9_linear_38_6755)" fill-opacity="0.12"/>
</g>
<path d="M15.585 24.9828C15.6533 25.0168 15.7216 25.0508 15.8103 25.0778C16.677 25.3215 17.6304 24.6374 17.935 23.5455C18.2395 22.4536 17.7939 21.3633 16.9272 21.1196C16.4972 20.991 16.0404 21.0874 15.6319 21.3952C15.2369 21.6757 14.9446 22.1265 14.7888 22.6452C14.5182 23.6347 14.8613 24.6229 15.585 24.9828Z" fill="white"/>
<path d="M13.6668 24.1141C13.7339 23.6025 13.6373 23.0775 13.3977 22.6688C13.1444 22.2533 12.7824 21.9881 12.3526 21.9276C11.4861 21.8204 10.6626 22.6201 10.5285 23.7117C10.4614 24.2233 10.558 24.7483 10.7976 25.157C10.9619 25.4431 11.1806 25.6541 11.4264 25.7763C11.5493 25.8374 11.6995 25.878 11.8427 25.8982C12.6955 25.9987 13.5191 25.1989 13.6668 24.1141Z" fill="white"/>
<path d="M18.9925 26.6603C19.054 26.7079 19.1223 26.7418 19.2042 26.7826C19.9143 27.1357 20.923 26.8198 21.5351 26.0001C21.8684 25.5697 22.0378 25.0578 22.0231 24.5735C22.0152 24.0757 21.8165 23.6532 21.4612 23.3744C20.7439 22.8303 19.6056 23.1328 18.9187 24.0346C18.2454 24.9431 18.2752 26.1162 18.9925 26.6603Z" fill="white"/>
<path d="M23.5703 27.5234C22.9552 26.9109 21.8233 27.0293 21.0474 27.8017C20.2715 28.5741 20.1239 29.6929 20.7459 30.3259C20.8484 30.428 20.9577 30.5164 21.0943 30.5843C21.3401 30.7065 21.6403 30.7536 21.9676 30.712C22.4381 30.6564 22.8945 30.4236 23.2825 30.0544C24.0447 29.2753 24.1855 28.136 23.5703 27.5234Z" fill="white"/>
<path d="M18.6129 28.0729C17.9688 26.6625 16.412 25.8883 14.885 26.219C13.0512 26.6185 10.7885 27.4009 10.0822 28.821C8.37765 32.2485 17.7316 36.9004 19.4361 33.4729C20.1561 32.0595 19.4009 29.7763 18.6129 28.0729Z" fill="white"/>
<path d="M23.5652 34.4407C23.5734 34.4407 23.5817 34.4407 23.5916 34.4391C23.6871 34.421 23.7464 34.3089 23.7234 34.1886C23.7003 34.0684 23.6047 33.9843 23.5092 34.0025C23.4614 34.0107 23.4218 34.042 23.3971 34.0914C23.3724 34.1376 23.3658 34.1952 23.3757 34.2529C23.3971 34.3616 23.4779 34.4407 23.5652 34.4407Z" fill="white"/>
<path d="M23.3379 34.4488C23.3197 34.396 23.2851 34.3499 23.2423 34.3219C23.1978 34.2939 23.15 34.2856 23.1055 34.3005C23.0166 34.3318 22.9754 34.4488 23.0149 34.5608C23.0331 34.6135 23.0677 34.6597 23.1105 34.6877C23.1401 34.7074 23.1715 34.7173 23.2011 34.7173C23.2159 34.7173 23.2324 34.714 23.2472 34.7091C23.3346 34.6778 23.3758 34.5608 23.3379 34.4488Z" fill="white"/>
<path d="M23.9755 34.4391C23.9837 34.4407 23.992 34.4407 24.0018 34.4407C24.0875 34.4407 24.1699 34.3616 24.1897 34.2529C24.2012 34.1952 24.193 34.1376 24.1683 34.0914C24.1435 34.0437 24.104 34.0123 24.0562 34.0025C23.9606 33.9843 23.8651 34.0684 23.842 34.1886C23.8206 34.3089 23.8799 34.421 23.9755 34.4391Z" fill="white"/>
<path d="M24.4599 34.3023C24.3709 34.2726 24.2671 34.3385 24.2292 34.4506C24.1913 34.5626 24.2308 34.6779 24.3215 34.7092C24.3363 34.7142 24.3511 34.7175 24.3676 34.7175C24.3973 34.7175 24.4286 34.7076 24.4582 34.6878C24.5011 34.6598 24.534 34.6153 24.5538 34.5609C24.59 34.4489 24.5488 34.3319 24.4599 34.3023Z" fill="white"/>
<path d="M24.0068 34.594C23.8766 34.4885 23.6888 34.4885 23.5569 34.594C23.3988 34.7208 23.2175 34.9054 23.2175 35.0767C23.2175 35.4903 24.3462 35.4903 24.3462 35.0767C24.3478 34.9054 24.1649 34.7208 24.0068 34.594Z" fill="white"/>
<path d="M23.718 39.6199C23.7263 39.6199 23.7345 39.6199 23.7444 39.6183C23.8399 39.6002 23.8993 39.4881 23.8762 39.3678C23.8531 39.2476 23.7576 39.1635 23.662 39.1817C23.6142 39.1899 23.5747 39.2212 23.55 39.2706C23.5252 39.3168 23.5187 39.3744 23.5285 39.4321C23.55 39.5408 23.6307 39.6199 23.718 39.6199Z" fill="white"/>
<path d="M23.4907 39.628C23.4726 39.5752 23.438 39.5291 23.3951 39.5011C23.3506 39.4731 23.3029 39.4648 23.2584 39.4797C23.1694 39.511 23.1282 39.628 23.1678 39.74C23.1859 39.7927 23.2205 39.8389 23.2633 39.8669C23.293 39.8866 23.3243 39.8965 23.3539 39.8965C23.3688 39.8965 23.3852 39.8932 23.4001 39.8883C23.4874 39.857 23.5286 39.74 23.4907 39.628Z" fill="white"/>
<path d="M24.1283 39.6183C24.1365 39.6199 24.1448 39.6199 24.1547 39.6199C24.2403 39.6199 24.3227 39.5408 24.3425 39.4321C24.354 39.3744 24.3458 39.3168 24.3211 39.2706C24.2964 39.2229 24.2568 39.1915 24.209 39.1817C24.1135 39.1635 24.0179 39.2476 23.9949 39.3678C23.9734 39.4881 24.0327 39.6002 24.1283 39.6183Z" fill="white"/>
<path d="M24.6127 39.4815C24.5237 39.4518 24.4199 39.5177 24.382 39.6298C24.3441 39.7418 24.3837 39.8571 24.4743 39.8884C24.4891 39.8934 24.504 39.8967 24.5204 39.8967C24.5501 39.8967 24.5814 39.8868 24.611 39.867C24.6539 39.839 24.6868 39.7945 24.7066 39.7401C24.7429 39.6281 24.7017 39.5111 24.6127 39.4815Z" fill="white"/>
<path d="M24.1596 39.7732C24.0294 39.6677 23.8416 39.6677 23.7098 39.7732C23.5516 39.9 23.3704 40.0846 23.3704 40.2559C23.3704 40.6695 24.499 40.6695 24.499 40.2559C24.5006 40.0846 24.3178 39.9 24.1596 39.7732Z" fill="white"/>
<path d="M21.7907 36.5721C21.7987 36.5742 21.8067 36.5764 21.8166 36.5773C21.9136 36.5845 21.9999 36.4917 22.0088 36.3695C22.0176 36.2474 21.9471 36.1415 21.8501 36.1342C21.8018 36.1298 21.7555 36.1498 21.7188 36.1912C21.683 36.2294 21.6617 36.2834 21.6563 36.3416C21.6489 36.4522 21.7064 36.5495 21.7907 36.5721Z" fill="white"/>
<path d="M21.5691 36.5209C21.5652 36.4653 21.5437 36.4118 21.5096 36.3737C21.4739 36.3351 21.4299 36.3148 21.3831 36.3176C21.289 36.3248 21.2189 36.4271 21.2281 36.5456C21.232 36.6012 21.2535 36.6547 21.2876 36.6929C21.3111 36.7196 21.3388 36.7373 21.3675 36.745C21.3818 36.7488 21.3986 36.7499 21.4142 36.7489C21.5066 36.7413 21.5767 36.639 21.5691 36.5209Z" fill="white"/>
<path d="M22.1875 36.6766C22.195 36.6803 22.203 36.6825 22.2125 36.685C22.2953 36.7072 22.3953 36.6521 22.4426 36.5522C22.4686 36.4995 22.4756 36.4416 22.4637 36.3907C22.4522 36.3381 22.4221 36.2977 22.3785 36.2757C22.2909 36.2335 22.1768 36.2899 22.1234 36.4001C22.0716 36.5108 22.0999 36.6344 22.1875 36.6766Z" fill="white"/>
<path d="M22.6907 36.6699C22.6125 36.6182 22.4952 36.655 22.4295 36.7534C22.3639 36.8518 22.3723 36.9735 22.4517 37.0272C22.4648 37.0358 22.4782 37.0428 22.4942 37.0471C22.5228 37.0547 22.5556 37.0533 22.5894 37.0419C22.638 37.0259 22.6813 36.9915 22.7145 36.944C22.7785 36.8452 22.769 36.7216 22.6907 36.6699Z" fill="white"/>
<path d="M22.1776 36.8344C22.0792 36.6988 21.8978 36.6502 21.7431 36.718C21.5575 36.7996 21.3347 36.9309 21.2903 37.0964C21.1833 37.4959 22.2735 37.788 22.3805 37.3885C22.4265 37.2234 22.2976 36.9979 22.1776 36.8344Z" fill="white"/>
<g filter="url(#filter21_di_38_6755)">
<path d="M26.8081 33.9034C26.8081 33.8279 26.7651 33.759 26.6972 33.726L25.4866 33.1372C25.3562 33.0737 25.2046 33.1687 25.2046 33.3139L25.2046 33.3996C25.2046 33.4752 25.2478 33.5442 25.3158 33.5771L26.5264 34.1636C26.6568 34.2267 26.8081 34.1317 26.8081 33.9866L26.8081 33.9034Z" fill="#2E2E2E"/>
</g>
</g>
<defs>
<filter id="filter0_f_38_6755" x="4.52753" y="25.8604" width="52.1591" height="25.7418" filterUnits="userSpaceOnUse" color-interpolation-filters="sRGB">
<feFlood flood-opacity="0" result="BackgroundImageFix"/>
<feBlend mode="normal" in="SourceGraphic" in2="BackgroundImageFix" result="shape"/>
<feGaussianBlur stdDeviation="0.386075" result="effect1_foregroundBlur_38_6755"/>
</filter>
<filter id="filter1_i_38_6755" x="26.8886" y="37.5583" width="5.69638" height="7.9856" filterUnits="userSpaceOnUse" color-interpolation-filters="sRGB">
<feFlood flood-opacity="0" result="BackgroundImageFix"/>
<feBlend mode="normal" in="SourceGraphic" in2="BackgroundImageFix" result="shape"/>
<feColorMatrix in="SourceAlpha" type="matrix" values="0 0 0 0 0 0 0 0 0 0 0 0 0 0 0 0 0 0 127 0" result="hardAlpha"/>
<feMorphology radius="0.0905896" operator="erode" in="SourceAlpha" result="effect1_innerShadow_38_6755"/>
<feOffset/>
<feGaussianBlur stdDeviation="0.0452948"/>
<feComposite in2="hardAlpha" operator="arithmetic" k2="-1" k3="1"/>
<feColorMatrix type="matrix" values="0 0 0 0 0 0 0 0 0 0 0 0 0 0 0 0 0 0 0.25 0"/>
<feBlend mode="normal" in2="shape" result="effect1_innerShadow_38_6755"/>
</filter>
<filter id="filter2_di_38_6755" x="27.1024" y="38.2158" width="5.05565" height="6.83431" filterUnits="userSpaceOnUse" color-interpolation-filters="sRGB">
<feFlood flood-opacity="0" result="BackgroundImageFix"/>
<feColorMatrix in="SourceAlpha" type="matrix" values="0 0 0 0 0 0 0 0 0 0 0 0 0 0 0 0 0 0 127 0" result="hardAlpha"/>
<feOffset dy="0.0362358"/>
<feGaussianBlur stdDeviation="0.0271769"/>
<feColorMatrix type="matrix" values="0 0 0 0 1 0 0 0 0 1 0 0 0 0 1 0 0 0 0.41 0"/>
<feBlend mode="normal" in2="BackgroundImageFix" result="effect1_dropShadow_38_6755"/>
<feBlend mode="normal" in="SourceGraphic" in2="effect1_dropShadow_38_6755" result="shape"/>
<feColorMatrix in="SourceAlpha" type="matrix" values="0 0 0 0 0 0 0 0 0 0 0 0 0 0 0 0 0 0 127 0" result="hardAlpha"/>
<feOffset dx="-0.271769" dy="0.181179"/>
<feGaussianBlur stdDeviation="0.135884"/>
<feComposite in2="hardAlpha" operator="arithmetic" k2="-1" k3="1"/>
<feColorMatrix type="matrix" values="0 0 0 0 0 0 0 0 0 0 0 0 0 0 0 0 0 0 0.25 0"/>
<feBlend mode="normal" in2="shape" result="effect2_innerShadow_38_6755"/>
</filter>
<filter id="filter3_i_38_6755" x="27.2258" y="37.604" width="5.08463" height="7.8938" filterUnits="userSpaceOnUse" color-interpolation-filters="sRGB">
<feFlood flood-opacity="0" result="BackgroundImageFix"/>
<feBlend mode="normal" in="SourceGraphic" in2="BackgroundImageFix" result="shape"/>
<feColorMatrix in="SourceAlpha" type="matrix" values="0 0 0 0 0 0 0 0 0 0 0 0 0 0 0 0 0 0 127 0" result="hardAlpha"/>
<feMorphology radius="0.120712" operator="erode" in="SourceAlpha" result="effect1_innerShadow_38_6755"/>
<feOffset/>
<feGaussianBlur stdDeviation="0.0603558"/>
<feComposite in2="hardAlpha" operator="arithmetic" k2="-1" k3="1"/>
<feColorMatrix type="matrix" values="0 0 0 0 0 0 0 0 0 0 0 0 0 0 0 0 0 0 0.25 0"/>
<feBlend mode="normal" in2="shape" result="effect1_innerShadow_38_6755"/>
</filter>
<filter id="filter4_di_38_6755" x="27.7308" y="38.6159" width="3.96643" height="5.95452" filterUnits="userSpaceOnUse" color-interpolation-filters="sRGB">
<feFlood flood-opacity="0" result="BackgroundImageFix"/>
<feColorMatrix in="SourceAlpha" type="matrix" values="0 0 0 0 0 0 0 0 0 0 0 0 0 0 0 0 0 0 127 0" result="hardAlpha"/>
<feOffset dy="0.0411677"/>
<feGaussianBlur stdDeviation="0.0257298"/>
<feColorMatrix type="matrix" values="0 0 0 0 1 0 0 0 0 1 0 0 0 0 1 0 0 0 0.59 0"/>
<feBlend mode="normal" in2="BackgroundImageFix" result="effect1_dropShadow_38_6755"/>
<feBlend mode="normal" in="SourceGraphic" in2="effect1_dropShadow_38_6755" result="shape"/>
<feColorMatrix in="SourceAlpha" type="matrix" values="0 0 0 0 0 0 0 0 0 0 0 0 0 0 0 0 0 0 127 0" result="hardAlpha"/>
<feOffset dx="-0.154379" dy="0.102919"/>
<feGaussianBlur stdDeviation="0.0771894"/>
<feComposite in2="hardAlpha" operator="arithmetic" k2="-1" k3="1"/>
<feColorMatrix type="matrix" values="0 0 0 0 0 0 0 0 0 0 0 0 0 0 0 0 0 0 0.25 0"/>
<feBlend mode="normal" in2="shape" result="effect2_innerShadow_38_6755"/>
</filter>
<filter id="filter5_i_38_6755" x="7.40787" y="29.0276" width="4.26743" height="5.98218" filterUnits="userSpaceOnUse" color-interpolation-filters="sRGB">
<feFlood flood-opacity="0" result="BackgroundImageFix"/>
<feBlend mode="normal" in="SourceGraphic" in2="BackgroundImageFix" result="shape"/>
<feColorMatrix in="SourceAlpha" type="matrix" values="0 0 0 0 0 0 0 0 0 0 0 0 0 0 0 0 0 0 127 0" result="hardAlpha"/>
<feMorphology radius="0.0905896" operator="erode" in="SourceAlpha" result="effect1_innerShadow_38_6755"/>
<feOffset/>
<feGaussianBlur stdDeviation="0.0452948"/>
<feComposite in2="hardAlpha" operator="arithmetic" k2="-1" k3="1"/>
<feColorMatrix type="matrix" values="0 0 0 0 0 0 0 0 0 0 0 0 0 0 0 0 0 0 0.25 0"/>
<feBlend mode="normal" in2="shape" result="effect1_innerShadow_38_6755"/>
</filter>
<filter id="filter6_di_38_6755" x="7.49773" y="29.5158" width="3.86961" height="5.16902" filterUnits="userSpaceOnUse" color-interpolation-filters="sRGB">
<feFlood flood-opacity="0" result="BackgroundImageFix"/>
<feColorMatrix in="SourceAlpha" type="matrix" values="0 0 0 0 0 0 0 0 0 0 0 0 0 0 0 0 0 0 127 0" result="hardAlpha"/>
<feOffset dy="0.0362358"/>
<feGaussianBlur stdDeviation="0.0271769"/>
<feColorMatrix type="matrix" values="0 0 0 0 1 0 0 0 0 1 0 0 0 0 1 0 0 0 0.41 0"/>
<feBlend mode="normal" in2="BackgroundImageFix" result="effect1_dropShadow_38_6755"/>
<feBlend mode="normal" in="SourceGraphic" in2="effect1_dropShadow_38_6755" result="shape"/>
<feColorMatrix in="SourceAlpha" type="matrix" values="0 0 0 0 0 0 0 0 0 0 0 0 0 0 0 0 0 0 127 0" result="hardAlpha"/>
<feOffset dx="-0.271769" dy="0.181179"/>
<feGaussianBlur stdDeviation="0.135884"/>
<feComposite in2="hardAlpha" operator="arithmetic" k2="-1" k3="1"/>
<feColorMatrix type="matrix" values="0 0 0 0 0 0 0 0 0 0 0 0 0 0 0 0 0 0 0.25 0"/>
<feBlend mode="normal" in2="shape" result="effect2_innerShadow_38_6755"/>
</filter>
<filter id="filter7_i_38_6755" x="7.56723" y="29.1477" width="3.67535" height="5.99756" filterUnits="userSpaceOnUse" color-interpolation-filters="sRGB">
<feFlood flood-opacity="0" result="BackgroundImageFix"/>
<feBlend mode="normal" in="SourceGraphic" in2="BackgroundImageFix" result="shape"/>
<feColorMatrix in="SourceAlpha" type="matrix" values="0 0 0 0 0 0 0 0 0 0 0 0 0 0 0 0 0 0 127 0" result="hardAlpha"/>
<feMorphology radius="0.120712" operator="erode" in="SourceAlpha" result="effect1_innerShadow_38_6755"/>
<feOffset/>
<feGaussianBlur stdDeviation="0.0603558"/>
<feComposite in2="hardAlpha" operator="arithmetic" k2="-1" k3="1"/>
<feColorMatrix type="matrix" values="0 0 0 0 0 0 0 0 0 0 0 0 0 0 0 0 0 0 0.25 0"/>
<feBlend mode="normal" in2="shape" result="effect1_innerShadow_38_6755"/>
</filter>
<filter id="filter8_di_38_6755" x="7.89347" y="29.9157" width="2.9248" height="4.52972" filterUnits="userSpaceOnUse" color-interpolation-filters="sRGB">
<feFlood flood-opacity="0" result="BackgroundImageFix"/>
<feColorMatrix in="SourceAlpha" type="matrix" values="0 0 0 0 0 0 0 0 0 0 0 0 0 0 0 0 0 0 127 0" result="hardAlpha"/>
<feOffset dy="0.0411677"/>
<feGaussianBlur stdDeviation="0.0257298"/>
<feColorMatrix type="matrix" values="0 0 0 0 1 0 0 0 0 1 0 0 0 0 1 0 0 0 0.59 0"/>
<feBlend mode="normal" in2="BackgroundImageFix" result="effect1_dropShadow_38_6755"/>
<feBlend mode="normal" in="SourceGraphic" in2="effect1_dropShadow_38_6755" result="shape"/>
<feColorMatrix in="SourceAlpha" type="matrix" values="0 0 0 0 0 0 0 0 0 0 0 0 0 0 0 0 0 0 127 0" result="hardAlpha"/>
<feOffset dx="-0.154379" dy="0.102919"/>
<feGaussianBlur stdDeviation="0.0771894"/>
<feComposite in2="hardAlpha" operator="arithmetic" k2="-1" k3="1"/>
<feColorMatrix type="matrix" values="0 0 0 0 0 0 0 0 0 0 0 0 0 0 0 0 0 0 0.25 0"/>
<feBlend mode="normal" in2="shape" result="effect2_innerShadow_38_6755"/>
</filter>
<filter id="filter9_ii_38_6755" x="5.92133" y="12.7562" width="51.0657" height="35.3195" filterUnits="userSpaceOnUse" color-interpolation-filters="sRGB">
<feFlood flood-opacity="0" result="BackgroundImageFix"/>
<feBlend mode="normal" in="SourceGraphic" in2="BackgroundImageFix" result="shape"/>
<feColorMatrix in="SourceAlpha" type="matrix" values="0 0 0 0 0 0 0 0 0 0 0 0 0 0 0 0 0 0 127 0" result="hardAlpha"/>
<feOffset dx="0.724269" dy="-0.965693"/>
<feGaussianBlur stdDeviation="2.89708"/>
<feComposite in2="hardAlpha" operator="arithmetic" k2="-1" k3="1"/>
<feColorMatrix type="matrix" values="0 0 0 0 0 0 0 0 0 0 0 0 0 0 0 0 0 0 0.07 0"/>
<feBlend mode="normal" in2="shape" result="effect1_innerShadow_38_6755"/>
<feColorMatrix in="SourceAlpha" type="matrix" values="0 0 0 0 0 0 0 0 0 0 0 0 0 0 0 0 0 0 127 0" result="hardAlpha"/>
<feOffset dy="-0.120712"/>
<feGaussianBlur stdDeviation="0.241423"/>
<feComposite in2="hardAlpha" operator="arithmetic" k2="-1" k3="1"/>
<feColorMatrix type="matrix" values="0 0 0 0 0 0 0 0 0 0 0 0 0 0 0 0 0 0 0.09 0"/>
<feBlend mode="normal" in2="effect1_innerShadow_38_6755" result="effect2_innerShadow_38_6755"/>
</filter>
<filter id="filter10_ddii_38_6755" x="38.8934" y="32.7262" width="17.3934" height="10.9821" filterUnits="userSpaceOnUse" color-interpolation-filters="sRGB">
<feFlood flood-opacity="0" result="BackgroundImageFix"/>
<feColorMatrix in="SourceAlpha" type="matrix" values="0 0 0 0 0 0 0 0 0 0 0 0 0 0 0 0 0 0 127 0" result="hardAlpha"/>
<feOffset dy="0.082721"/>
<feGaussianBlur stdDeviation="0.0551473"/>
<feColorMatrix type="matrix" values="0 0 0 0 0 0 0 0 0 0 0 0 0 0 0 0 0 0 0.57 0"/>
<feBlend mode="normal" in2="BackgroundImageFix" result="effect1_dropShadow_38_6755"/>
<feColorMatrix in="SourceAlpha" type="matrix" values="0 0 0 0 0 0 0 0 0 0 0 0 0 0 0 0 0 0 127 0" result="hardAlpha"/>
<feOffset dy="-0.0551473"/>
<feGaussianBlur stdDeviation="0.0551473"/>
<feColorMatrix type="matrix" values="0 0 0 0 0 0 0 0 0 0 0 0 0 0 0 0 0 0 1 0"/>
<feBlend mode="normal" in2="effect1_dropShadow_38_6755" result="effect2_dropShadow_38_6755"/>
<feBlend mode="normal" in="SourceGraphic" in2="effect2_dropShadow_38_6755" result="shape"/>
<feColorMatrix in="SourceAlpha" type="matrix" values="0 0 0 0 0 0 0 0 0 0 0 0 0 0 0 0 0 0 127 0" result="hardAlpha"/>
<feOffset dy="0.76027"/>
<feGaussianBlur stdDeviation="0.774798"/>
<feComposite in2="hardAlpha" operator="arithmetic" k2="-1" k3="1"/>
<feColorMatrix type="matrix" values="0 0 0 0 0 0 0 0 0 0 0 0 0 0 0 0 0 0 1 0"/>
<feBlend mode="normal" in2="shape" result="effect3_innerShadow_38_6755"/>
<feColorMatrix in="SourceAlpha" type="matrix" values="0 0 0 0 0 0 0 0 0 0 0 0 0 0 0 0 0 0 127 0" result="hardAlpha"/>
<feOffset dy="-0.0828472"/>
<feGaussianBlur stdDeviation="0.0828472"/>
<feComposite in2="hardAlpha" operator="arithmetic" k2="-1" k3="1"/>
<feColorMatrix type="matrix" values="0 0 0 0 0 0 0 0 0 0 0 0 0 0 0 0 0 0 1 0"/>
<feBlend mode="normal" in2="effect3_innerShadow_38_6755" result="effect4_innerShadow_38_6755"/>
</filter>
<filter id="filter11_d_38_6755" x="54.2568" y="33.4473" width="1.70962" height="2.14539" filterUnits="userSpaceOnUse" color-interpolation-filters="sRGB">
<feFlood flood-opacity="0" result="BackgroundImageFix"/>
<feColorMatrix in="SourceAlpha" type="matrix" values="0 0 0 0 0 0 0 0 0 0 0 0 0 0 0 0 0 0 127 0" result="hardAlpha"/>
<feOffset dx="0.0879027" dy="0.109192"/>
<feGaussianBlur stdDeviation="0.0545959"/>
<feColorMatrix type="matrix" values="0 0 0 0 1 0 0 0 0 1 0 0 0 0 1 0 0 0 0.24 0"/>
<feBlend mode="normal" in2="BackgroundImageFix" result="effect1_dropShadow_38_6755"/>
<feBlend mode="normal" in="SourceGraphic" in2="effect1_dropShadow_38_6755" result="shape"/>
</filter>
<filter id="filter12_d_38_6755" x="40.8003" y="39.3071" width="5.11633" height="2.02991" filterUnits="userSpaceOnUse" color-interpolation-filters="sRGB">
<feFlood flood-opacity="0" result="BackgroundImageFix"/>
<feColorMatrix in="SourceAlpha" type="matrix" values="0 0 0 0 0 0 0 0 0 0 0 0 0 0 0 0 0 0 127 0" result="hardAlpha"/>
<feOffset dx="0.0879027" dy="0.109192"/>
<feGaussianBlur stdDeviation="0.0545959"/>
<feColorMatrix type="matrix" values="0 0 0 0 1 0 0 0 0 1 0 0 0 0 1 0 0 0 0.24 0"/>
<feBlend mode="normal" in2="BackgroundImageFix" result="effect1_dropShadow_38_6755"/>
<feBlend mode="normal" in="SourceGraphic" in2="effect1_dropShadow_38_6755" result="shape"/>
</filter>
<filter id="filter13_ddii_38_6755" x="38.8936" y="32.7262" width="17.3934" height="10.9821" filterUnits="userSpaceOnUse" color-interpolation-filters="sRGB">
<feFlood flood-opacity="0" result="BackgroundImageFix"/>
<feColorMatrix in="SourceAlpha" type="matrix" values="0 0 0 0 0 0 0 0 0 0 0 0 0 0 0 0 0 0 127 0" result="hardAlpha"/>
<feOffset dy="0.082721"/>
<feGaussianBlur stdDeviation="0.0551473"/>
<feColorMatrix type="matrix" values="0 0 0 0 0 0 0 0 0 0 0 0 0 0 0 0 0 0 0.57 0"/>
<feBlend mode="normal" in2="BackgroundImageFix" result="effect1_dropShadow_38_6755"/>
<feColorMatrix in="SourceAlpha" type="matrix" values="0 0 0 0 0 0 0 0 0 0 0 0 0 0 0 0 0 0 127 0" result="hardAlpha"/>
<feOffset dy="-0.0551473"/>
<feGaussianBlur stdDeviation="0.0551473"/>
<feColorMatrix type="matrix" values="0 0 0 0 0 0 0 0 0 0 0 0 0 0 0 0 0 0 1 0"/>
<feBlend mode="normal" in2="effect1_dropShadow_38_6755" result="effect2_dropShadow_38_6755"/>
<feBlend mode="normal" in="SourceGraphic" in2="effect2_dropShadow_38_6755" result="shape"/>
<feColorMatrix in="SourceAlpha" type="matrix" values="0 0 0 0 0 0 0 0 0 0 0 0 0 0 0 0 0 0 127 0" result="hardAlpha"/>
<feOffset dy="0.76027"/>
<feGaussianBlur stdDeviation="0.774798"/>
<feComposite in2="hardAlpha" operator="arithmetic" k2="-1" k3="1"/>
<feColorMatrix type="matrix" values="0 0 0 0 0 0 0 0 0 0 0 0 0 0 0 0 0 0 1 0"/>
<feBlend mode="normal" in2="shape" result="effect3_innerShadow_38_6755"/>
<feColorMatrix in="SourceAlpha" type="matrix" values="0 0 0 0 0 0 0 0 0 0 0 0 0 0 0 0 0 0 127 0" result="hardAlpha"/>
<feOffset dy="-0.0828472"/>
<feGaussianBlur stdDeviation="0.0828472"/>
<feComposite in2="hardAlpha" operator="arithmetic" k2="-1" k3="1"/>
<feColorMatrix type="matrix" values="0 0 0 0 0 0 0 0 0 0 0 0 0 0 0 0 0 0 1 0"/>
<feBlend mode="normal" in2="effect3_innerShadow_38_6755" result="effect4_innerShadow_38_6755"/>
</filter>
<filter id="filter14_ddii_38_6755" x="38.8933" y="32.7262" width="17.3935" height="10.9821" filterUnits="userSpaceOnUse" color-interpolation-filters="sRGB">
<feFlood flood-opacity="0" result="BackgroundImageFix"/>
<feColorMatrix in="SourceAlpha" type="matrix" values="0 0 0 0 0 0 0 0 0 0 0 0 0 0 0 0 0 0 127 0" result="hardAlpha"/>
<feOffset dy="0.082721"/>
<feGaussianBlur stdDeviation="0.0551473"/>
<feColorMatrix type="matrix" values="0 0 0 0 0 0 0 0 0 0 0 0 0 0 0 0 0 0 0.57 0"/>
<feBlend mode="normal" in2="BackgroundImageFix" result="effect1_dropShadow_38_6755"/>
<feColorMatrix in="SourceAlpha" type="matrix" values="0 0 0 0 0 0 0 0 0 0 0 0 0 0 0 0 0 0 127 0" result="hardAlpha"/>
<feOffset dy="-0.0551473"/>
<feGaussianBlur stdDeviation="0.0551473"/>
<feColorMatrix type="matrix" values="0 0 0 0 0.670588 0 0 0 0 0.717647 0 0 0 0 0.760784 0 0 0 1 0"/>
<feBlend mode="normal" in2="effect1_dropShadow_38_6755" result="effect2_dropShadow_38_6755"/>
<feBlend mode="normal" in="SourceGraphic" in2="effect2_dropShadow_38_6755" result="shape"/>
<feColorMatrix in="SourceAlpha" type="matrix" values="0 0 0 0 0 0 0 0 0 0 0 0 0 0 0 0 0 0 127 0" result="hardAlpha"/>
<feOffset dy="0.76027"/>
<feGaussianBlur stdDeviation="0.774798"/>
<feComposite in2="hardAlpha" operator="arithmetic" k2="-1" k3="1"/>
<feColorMatrix type="matrix" values="0 0 0 0 0.768627 0 0 0 0 0.768627 0 0 0 0 0.768627 0 0 0 1 0"/>
<feBlend mode="normal" in2="shape" result="effect3_innerShadow_38_6755"/>
<feColorMatrix in="SourceAlpha" type="matrix" values="0 0 0 0 0 0 0 0 0 0 0 0 0 0 0 0 0 0 127 0" result="hardAlpha"/>
<feOffset dy="-0.0828472"/>
<feGaussianBlur stdDeviation="0.0828472"/>
<feComposite in2="hardAlpha" operator="arithmetic" k2="-1" k3="1"/>
<feColorMatrix type="matrix" values="0 0 0 0 0.670588 0 0 0 0 0.717647 0 0 0 0 0.760784 0 0 0 1 0"/>
<feBlend mode="normal" in2="effect3_innerShadow_38_6755" result="effect4_innerShadow_38_6755"/>
</filter>
<filter id="filter15_d_38_6755" x="54.2571" y="33.4473" width="1.70962" height="2.14539" filterUnits="userSpaceOnUse" color-interpolation-filters="sRGB">
<feFlood flood-opacity="0" result="BackgroundImageFix"/>
<feColorMatrix in="SourceAlpha" type="matrix" values="0 0 0 0 0 0 0 0 0 0 0 0 0 0 0 0 0 0 127 0" result="hardAlpha"/>
<feOffset dx="0.0879027" dy="0.109192"/>
<feGaussianBlur stdDeviation="0.0545959"/>
<feColorMatrix type="matrix" values="0 0 0 0 1 0 0 0 0 1 0 0 0 0 1 0 0 0 0.24 0"/>
<feBlend mode="normal" in2="BackgroundImageFix" result="effect1_dropShadow_38_6755"/>
<feBlend mode="normal" in="SourceGraphic" in2="effect1_dropShadow_38_6755" result="shape"/>
</filter>
<filter id="filter16_d_38_6755" x="40.8005" y="39.3071" width="5.11633" height="2.02991" filterUnits="userSpaceOnUse" color-interpolation-filters="sRGB">
<feFlood flood-opacity="0" result="BackgroundImageFix"/>
<feColorMatrix in="SourceAlpha" type="matrix" values="0 0 0 0 0 0 0 0 0 0 0 0 0 0 0 0 0 0 127 0" result="hardAlpha"/>
<feOffset dx="0.0879027" dy="0.109192"/>
<feGaussianBlur stdDeviation="0.0545959"/>
<feColorMatrix type="matrix" values="0 0 0 0 1 0 0 0 0 1 0 0 0 0 1 0 0 0 0.24 0"/>
<feBlend mode="normal" in2="BackgroundImageFix" result="effect1_dropShadow_38_6755"/>
<feBlend mode="normal" in="SourceGraphic" in2="effect1_dropShadow_38_6755" result="shape"/>
</filter>
<filter id="filter17_ddi_38_6755" x="30.4559" y="21.4542" width="18.4841" height="13.0701" filterUnits="userSpaceOnUse" color-interpolation-filters="sRGB">
<feFlood flood-opacity="0" result="BackgroundImageFix"/>
<feColorMatrix in="SourceAlpha" type="matrix" values="0 0 0 0 0 0 0 0 0 0 0 0 0 0 0 0 0 0 127 0" result="hardAlpha"/>
<feOffset dx="-0.135191" dy="0.0675955"/>
<feGaussianBlur stdDeviation="0.0675955"/>
<feColorMatrix type="matrix" values="0 0 0 0 1 0 0 0 0 1 0 0 0 0 1 0 0 0 0.28 0"/>
<feBlend mode="normal" in2="BackgroundImageFix" result="effect1_dropShadow_38_6755"/>
<feColorMatrix in="SourceAlpha" type="matrix" values="0 0 0 0 0 0 0 0 0 0 0 0 0 0 0 0 0 0 127 0" result="hardAlpha"/>
<feOffset dy="-0.0675955"/>
<feGaussianBlur stdDeviation="0.0675955"/>
<feColorMatrix type="matrix" values="0 0 0 0 1 0 0 0 0 1 0 0 0 0 1 0 0 0 0.56 0"/>
<feBlend mode="normal" in2="effect1_dropShadow_38_6755" result="effect2_dropShadow_38_6755"/>
<feBlend mode="normal" in="SourceGraphic" in2="effect2_dropShadow_38_6755" result="shape"/>
<feColorMatrix in="SourceAlpha" type="matrix" values="0 0 0 0 0 0 0 0 0 0 0 0 0 0 0 0 0 0 127 0" result="hardAlpha"/>
<feOffset dx="-0.0675955" dy="0.202787"/>
<feGaussianBlur stdDeviation="0.101393"/>
<feComposite in2="hardAlpha" operator="arithmetic" k2="-1" k3="1"/>
<feColorMatrix type="matrix" values="0 0 0 0 0 0 0 0 0 0 0 0 0 0 0 0 0 0 0.75 0"/>
<feBlend mode="normal" in2="shape" result="effect3_innerShadow_38_6755"/>
</filter>
<filter id="filter18_f_38_6755" x="31.3552" y="32.2472" width="18.6048" height="8.91597" filterUnits="userSpaceOnUse" color-interpolation-filters="sRGB">
<feFlood flood-opacity="0" result="BackgroundImageFix"/>
<feBlend mode="normal" in="SourceGraphic" in2="BackgroundImageFix" result="shape"/>
<feGaussianBlur stdDeviation="0.946338" result="effect1_foregroundBlur_38_6755"/>
</filter>
<filter id="filter19_di_38_6755" x="6.96028" y="17.5527" width="3.48836" height="4.48253" filterUnits="userSpaceOnUse" color-interpolation-filters="sRGB">
<feFlood flood-opacity="0" result="BackgroundImageFix"/>
<feColorMatrix in="SourceAlpha" type="matrix" values="0 0 0 0 0 0 0 0 0 0 0 0 0 0 0 0 0 0 127 0" result="hardAlpha"/>
<feOffset dy="0.0880777"/>
<feGaussianBlur stdDeviation="0.0440388"/>
<feColorMatrix type="matrix" values="0 0 0 0 0.925374 0 0 0 0 0.925374 0 0 0 0 0.925374 0 0 0 0.37 0"/>
<feBlend mode="normal" in2="BackgroundImageFix" result="effect1_dropShadow_38_6755"/>
<feBlend mode="normal" in="SourceGraphic" in2="effect1_dropShadow_38_6755" result="shape"/>
<feColorMatrix in="SourceAlpha" type="matrix" values="0 0 0 0 0 0 0 0 0 0 0 0 0 0 0 0 0 0 127 0" result="hardAlpha"/>
<feOffset dx="-0.340683" dy="0.425854"/>
<feGaussianBlur stdDeviation="0.170342"/>
<feComposite in2="hardAlpha" operator="arithmetic" k2="-1" k3="1"/>
<feColorMatrix type="matrix" values="0 0 0 0 0 0 0 0 0 0 0 0 0 0 0 0 0 0 0.8 0"/>
<feBlend mode="normal" in2="shape" result="effect2_innerShadow_38_6755"/>
</filter>
<filter id="filter20_f_38_6755" x="8.54678" y="25.6428" width="19.5685" height="13.5267" filterUnits="userSpaceOnUse" color-interpolation-filters="sRGB">
<feFlood flood-opacity="0" result="BackgroundImageFix"/>
<feBlend mode="normal" in="SourceGraphic" in2="BackgroundImageFix" result="shape"/>
<feGaussianBlur stdDeviation="0.146029" result="effect1_foregroundBlur_38_6755"/>
</filter>
<filter id="filter21_di_38_6755" x="25.1558" y="33.0196" width="1.7011" height="1.40759" filterUnits="userSpaceOnUse" color-interpolation-filters="sRGB">
<feFlood flood-opacity="0" result="BackgroundImageFix"/>
<feColorMatrix in="SourceAlpha" type="matrix" values="0 0 0 0 0 0 0 0 0 0 0 0 0 0 0 0 0 0 127 0" result="hardAlpha"/>
<feOffset dy="-0.0487754"/>
<feGaussianBlur stdDeviation="0.0243877"/>
<feColorMatrix type="matrix" values="0 0 0 0 0.78755 0 0 0 0 0.78755 0 0 0 0 0.78755 0 0 0 0.19 0"/>
<feBlend mode="normal" in2="BackgroundImageFix" result="effect1_dropShadow_38_6755"/>
<feBlend mode="normal" in="SourceGraphic" in2="effect1_dropShadow_38_6755" result="shape"/>
<feColorMatrix in="SourceAlpha" type="matrix" values="0 0 0 0 0 0 0 0 0 0 0 0 0 0 0 0 0 0 127 0" result="hardAlpha"/>
<feOffset dy="0.243877"/>
<feGaussianBlur stdDeviation="0.121939"/>
<feComposite in2="hardAlpha" operator="arithmetic" k2="-1" k3="1"/>
<feColorMatrix type="matrix" values="0 0 0 0 0 0 0 0 0 0 0 0 0 0 0 0 0 0 0.74 0"/>
<feBlend mode="normal" in2="shape" result="effect2_innerShadow_38_6755"/>
</filter>
<linearGradient id="paint0_linear_38_6755" x1="5.86705" y1="6.44501" x2="6.15914" y2="2.10009" gradientUnits="userSpaceOnUse">
<stop stop-color="#3F3F3F"/>
<stop offset="1" stop-color="#5C5C5C"/>
</linearGradient>
<linearGradient id="paint1_linear_38_6755" x1="5.49902" y1="6.215" x2="5.78873" y2="2.02624" gradientUnits="userSpaceOnUse">
<stop stop-color="#AAAAAA"/>
<stop offset="1" stop-color="#C2C2C2"/>
</linearGradient>
<linearGradient id="paint2_linear_38_6755" x1="4.39524" y1="4.82821" x2="4.61405" y2="1.57326" gradientUnits="userSpaceOnUse">
<stop stop-color="#3F3F3F"/>
<stop offset="1" stop-color="#5C5C5C"/>
</linearGradient>
<linearGradient id="paint3_linear_38_6755" x1="4.11953" y1="4.6559" x2="4.33656" y2="1.51794" gradientUnits="userSpaceOnUse">
<stop stop-color="#AAAAAA"/>
<stop offset="1" stop-color="#C2C2C2"/>
</linearGradient>
<linearGradient id="paint4_linear_38_6755" x1="24.8708" y1="38.7814" x2="36.9075" y2="14.4837" gradientUnits="userSpaceOnUse">
<stop stop-color="#0D3244"/>
<stop offset="1" stop-color="#183E91"/>
</linearGradient>
<linearGradient id="paint5_linear_38_6755" x1="26.4178" y1="44.3473" x2="7.8331" y2="13.0926" gradientUnits="userSpaceOnUse">
<stop stop-color="#1B1B1B"/>
<stop offset="1" stop-color="#1B1B1B"/>
</linearGradient>
<linearGradient id="paint6_linear_38_6755" x1="46.7225" y1="18.4032" x2="34.4233" y2="28.7653" gradientUnits="userSpaceOnUse">
<stop stop-color="#E8EAE9"/>
<stop offset="0.498386" stop-color="#707072"/>
<stop offset="1" stop-color="#2F3032"/>
</linearGradient>
<linearGradient id="paint7_linear_38_6755" x1="40.2773" y1="39.7085" x2="41.3297" y2="36.2931" gradientUnits="userSpaceOnUse">
<stop stop-color="#ECEAEA"/>
<stop offset="1" stop-color="white" stop-opacity="0"/>
</linearGradient>
<linearGradient id="paint8_linear_38_6755" x1="10.346" y1="27.5828" x2="5.63919" y2="24.0225" gradientUnits="userSpaceOnUse">
<stop stop-color="#E8EAE9"/>
<stop offset="0.498386" stop-color="#707072"/>
<stop offset="1" stop-color="#2F3032"/>
</linearGradient>
<linearGradient id="paint9_linear_38_6755" x1="15.7206" y1="37.543" x2="19.3868" y2="30.363" gradientUnits="userSpaceOnUse">
<stop stop-color="#040404"/>
<stop offset="1" stop-color="#3C3C3C" stop-opacity="0"/>
</linearGradient>
</defs>
</svg>
