<svg width="60" height="61" viewBox="0 0 60 61" fill="none" xmlns="http://www.w3.org/2000/svg">
<rect y="0.19574" width="60" height="60" rx="30" fill="#266FFF"/>
<path fill-rule="evenodd" clip-rule="evenodd" d="M27.9339 37.33C32.8541 38.4715 32.1618 43.4816 27.6009 43.2808C26.8716 43.7829 26.063 44.2162 25.3971 44.5439C25.3971 44.5492 25.4024 44.5598 25.4024 44.565C25.5292 44.9825 26.1634 45.2838 26.7871 45.4846C27.807 45.6749 28.864 45.7806 29.9421 45.7806C39.307 45.7806 46.8961 38.1862 46.8961 28.8266C46.8961 19.4617 39.3017 11.8726 29.9421 11.8726C28.8587 11.8726 27.7965 11.9783 26.7659 12.1686C26.1529 12.3694 25.5292 12.6706 25.4024 13.0829C25.4024 13.0881 25.3971 13.0987 25.3971 13.104C26.063 13.4317 26.8769 13.865 27.6062 14.3724C32.1671 14.1768 32.8541 19.1764 27.9339 20.3232C24.9532 21.0155 22.3943 17.982 22.5 16.1957C22.3203 16.2486 21.6903 16.6587 21.5 16.6957C20.85 16.8173 21.1606 17.7169 20.5 17.6957C19.4747 17.6587 18.2625 17.5592 17.2795 17.8816L17.1527 17.9238L17.0206 17.9027L16.9836 17.8974C14.4891 20.8517 12.9882 24.6621 12.9882 28.8319C12.9882 32.9964 14.4891 36.8121 16.9836 39.7611L17.0258 39.7558L17.158 39.7346L17.2848 39.7769C18.2678 40.0993 19.5467 39.946 20.572 39.909C21.4599 39.8773 21.7125 40.9579 22.5 41.1957C22.3943 39.4042 24.9532 36.6377 27.9339 37.33ZM34.355 19.2292C33.4619 16.9673 33.9798 14.6683 36.7544 15.7782C41.236 18.0824 44.4598 22.4847 44.6553 28.8266C44.4598 35.1685 41.236 39.5708 36.7544 41.875C33.9745 42.9848 33.4566 40.6859 34.355 38.424C35.5759 35.3323 36.0356 32.0979 36.1783 28.8266C36.0356 25.5605 35.5759 22.3209 34.355 19.2292ZM29.1177 33.2025C26.7025 33.2025 24.7471 31.2418 24.7471 28.8266C24.7471 26.4114 26.7078 24.456 29.1177 24.456C31.5329 24.456 33.4883 26.4167 33.4883 28.8266C33.4883 31.2418 31.5276 33.2025 29.1177 33.2025ZM18.6589 37.6894C17.4328 37.034 15.953 34.3652 15.4562 28.8266C15.953 23.288 17.4328 20.6191 18.6589 19.9691C21.0529 18.8593 22.9238 21.0736 22.3794 23.3514C21.8245 25.6715 21.703 26.9135 21.6713 28.8319C21.703 30.7503 21.8245 31.9923 22.3794 34.3123C22.9238 36.5848 21.0529 38.7992 18.6589 37.6894Z" fill="white"/>
<path fill-rule="evenodd" clip-rule="evenodd" d="M26.4 28.8593C26.4 30.3285 27.5997 31.5229 29.0636 31.5229C30.5328 31.5229 31.7272 30.3232 31.7272 28.8593C31.7272 27.3901 30.5275 26.1957 29.0636 26.1957C27.5944 26.1957 26.4 27.3954 26.4 28.8593Z" fill="white"/>
<path fill-rule="evenodd" clip-rule="evenodd" d="M18.7117 32.6106C18.6272 33.2554 18.3999 33.8578 18.0141 34.3916C18.1674 34.6136 18.2995 34.8514 18.4105 35.0945L18.6589 35.1104C18.7698 35.1156 18.8861 35.1104 18.9971 35.0998C19.2455 35.0681 19.478 34.9835 19.6841 34.8672C19.5362 34.7193 19.3512 34.5977 19.1292 34.5132C19.3089 33.6253 19.1451 33.0122 18.7117 32.6106Z" fill="white"/>
<path fill-rule="evenodd" clip-rule="evenodd" d="M40.8872 35.0945C40.9982 35.1103 41.1091 35.1156 41.2201 35.105L41.4685 35.0892C41.5795 34.8461 41.7063 34.6136 41.8649 34.3863C41.4844 33.8525 41.2518 33.25 41.1673 32.6053C40.7339 33.0069 40.5701 33.62 40.7445 34.5026C40.5225 34.5924 40.3375 34.7087 40.1896 34.8567C40.4115 34.9835 40.6388 35.0628 40.8872 35.0945Z" fill="white"/>
<path fill-rule="evenodd" clip-rule="evenodd" d="M47.451 42.0811C46.151 40.2684 48.2596 38.0065 49.1528 36.1515C50.363 33.6411 49.6337 32.2248 47.451 30.9775C47.0494 32.9911 46.3782 34.1168 45.3054 33.9424C44.5179 32.3041 43.4187 30.3962 42.3141 29.8941C41.2096 29.3868 39.8566 30.1267 41.7116 31.8601C41.6694 32.8484 41.9653 33.6887 42.5942 34.381C40.7339 36.5584 42.1556 39.4545 41.4315 41.6583C41.9812 45.2944 42.4462 48.9198 42.8796 52.5611C45.7704 50.9228 48.3178 48.7612 50.4 46.1928L47.451 42.0811Z" fill="white"/>
<path fill-rule="evenodd" clip-rule="evenodd" d="M17.2901 34.3863C17.919 33.694 18.2149 32.8484 18.1727 31.8654C20.0277 30.132 18.6694 29.3921 17.5702 29.8994C16.4656 30.4068 15.3664 32.3093 14.5789 33.9477C13.5061 34.1221 12.8349 32.9964 12.4333 30.9828C10.2506 32.2301 9.52127 33.6464 10.7315 36.1567C11.6247 38.0117 13.7333 40.2737 12.4333 42.0864L9.48956 46.2034C11.5665 48.7665 14.1191 50.9333 17.0047 52.5717C17.4381 48.9304 17.9031 45.3049 18.4528 41.6689C17.7287 39.4545 19.1504 36.5584 17.2901 34.3863Z" fill="white"/>
<circle cx="30" cy="28.5957" r="15.55" stroke="white" stroke-width="2.5"/>
</svg>
