<svg width="60" height="60" viewBox="0 0 60 60" fill="none" xmlns="http://www.w3.org/2000/svg">
<rect width="60" height="60" rx="30" fill="#266FFF"/>
<path fill-rule="evenodd" clip-rule="evenodd" d="M21.4387 26.6225C20.2972 31.5428 15.2871 30.8505 15.4879 26.2896C14.9859 25.5603 14.5525 24.7517 14.2248 24.0858C14.2196 24.0858 14.209 24.0911 14.2037 24.0911C13.7862 24.2179 13.485 24.8521 13.2841 25.4757C13.0939 26.4957 12.9882 27.5527 12.9882 28.6308C12.9882 37.9957 20.5826 45.5848 29.9421 45.5848C39.307 45.5848 46.8961 37.9904 46.8961 28.6308C46.8961 27.5474 46.7904 26.4851 46.6002 25.4546C46.3993 24.8415 46.0981 24.2179 45.6859 24.0911C45.6806 24.0911 45.67 24.0858 45.6647 24.0858C45.3371 24.7517 44.9037 25.5656 44.3964 26.2949C44.5919 30.8557 39.5924 31.5428 38.4456 26.6225C37.7532 23.6419 40.7137 21.3943 42.5 21.5C42.4472 21.3203 42.21 20.5502 42.173 20.3599C42.0514 19.7099 41.4789 19.9213 41.5 19.2607C41.537 18.2354 41.2096 16.9512 40.8872 15.9682L40.8449 15.8413L40.866 15.7092L40.8713 15.6722C37.9171 13.1777 34.1067 11.6768 29.9369 11.6768C25.7724 11.6768 21.9567 13.1777 19.0077 15.6722L19.013 15.7145L19.0341 15.8466L18.9918 15.9735C18.6694 16.9564 18.463 17.9747 18.5 19C18.5317 19.8879 17.7379 20.7125 17.5 21.5C19.2916 21.3943 22.1311 23.6419 21.4387 26.6225ZM39.5395 33.0437C41.8015 32.1506 44.1004 32.6685 42.9906 35.443C40.6864 39.9246 36.284 43.1484 29.9421 43.344C23.6003 43.1484 19.1979 39.9246 16.8937 35.443C15.7839 32.6632 18.0828 32.1453 20.3448 33.0437C23.4364 34.2645 26.6708 34.7243 29.9421 34.867C33.2082 34.7243 36.4479 34.2645 39.5395 33.0437ZM25.5662 27.8064C25.5662 25.3912 27.5269 23.4357 29.9421 23.4357C32.3573 23.4357 34.3128 25.3964 34.3128 27.8064C34.3128 30.2216 32.3521 32.177 29.9421 32.177C27.5269 32.177 25.5662 30.2163 25.5662 27.8064ZM21.0794 17.3475C21.7347 16.1214 24.4036 14.6417 29.9421 14.1449C35.4807 14.6417 38.1496 16.1214 38.7996 17.3475C39.9095 19.7416 37.6951 21.6125 35.4173 21.0681C33.0972 20.5132 31.8553 20.3916 29.9369 20.3599C28.0184 20.3916 26.7765 20.5132 24.4564 21.0681C22.1839 21.6124 19.9695 19.7416 21.0794 17.3475Z" fill="white"/>
<path fill-rule="evenodd" clip-rule="evenodd" d="M29.9094 25.0887C28.4402 25.0887 27.2458 26.2884 27.2458 27.7523C27.2458 29.2215 28.4455 30.4159 29.9094 30.4159C31.3786 30.4159 32.573 29.2162 32.573 27.7523C32.573 26.2831 31.3733 25.0887 29.9094 25.0887Z" fill="white"/>
<path fill-rule="evenodd" clip-rule="evenodd" d="M18.7117 32.4149C18.6271 33.0596 18.3999 33.6621 18.0141 34.1959C18.1674 34.4178 18.2995 34.6557 18.4105 34.8988L18.6589 34.9146C18.7698 34.9199 18.8861 34.9146 18.9971 34.904C19.2455 34.8723 19.478 34.7878 19.6841 34.6715C19.5362 34.5235 19.3512 34.402 19.1292 34.3174C19.3089 33.4296 19.1451 32.8165 18.7117 32.4149Z" fill="white"/>
<path fill-rule="evenodd" clip-rule="evenodd" d="M40.8872 34.8987C40.9982 34.9146 41.1092 34.9198 41.2201 34.9093L41.4685 34.8934C41.5795 34.6503 41.7063 34.4178 41.8649 34.1905C41.4844 33.6568 41.2518 33.0543 41.1673 32.4095C40.7339 32.8112 40.5701 33.4242 40.7445 34.3068C40.5225 34.3966 40.3376 34.5129 40.1896 34.6609C40.4115 34.7877 40.6388 34.867 40.8872 34.8987Z" fill="white"/>
<path fill-rule="evenodd" clip-rule="evenodd" d="M17.2901 34.1906C17.919 33.4982 18.2149 32.6527 18.1727 31.6697C20.0277 29.9362 18.6694 29.1963 17.5702 29.7037C16.4656 30.211 15.3664 32.1136 14.5789 33.7519C13.5061 33.9263 12.8349 32.8006 12.4333 30.7871C10.2506 32.0343 9.52127 33.4507 10.7315 35.961C11.6247 37.816 13.7333 40.0779 12.4333 41.8907L9.48956 46.0076C11.5665 48.5708 14.1191 50.7376 17.0047 52.3759C17.4381 48.7346 17.9031 45.1092 18.4528 41.4732C17.7287 39.2588 19.1504 36.3627 17.2901 34.1906Z" fill="white"/>
<path fill-rule="evenodd" clip-rule="evenodd" d="M47.451 41.8854C46.1509 40.0727 48.2596 37.8107 49.1528 35.9557C50.363 33.4454 49.6337 32.029 47.451 30.7818C47.0494 32.7954 46.3782 33.921 45.3054 33.7466C44.5179 32.1083 43.4186 30.2005 42.3141 29.6984C41.2096 29.1911 39.8566 29.9309 41.7116 31.6644C41.6693 32.6527 41.9653 33.493 42.5942 34.1853C40.7339 36.3627 42.1556 39.2588 41.4315 41.4626C41.9812 45.0986 42.4462 48.7241 42.8796 52.3654C45.7704 50.727 48.3177 48.5655 50.4 45.997L47.451 41.8854Z" fill="white"/>
<circle cx="30" cy="28.4" r="15.55" stroke="white" stroke-width="2.5"/>
</svg>
