<svg width="20" height="20" viewBox="0 0 20 20" fill="none" xmlns="http://www.w3.org/2000/svg">
<path d="M18.227 12.9036H19.6093V11.964C19.6093 10.0725 18.0779 8.53906 16.1889 8.53906H3.67126L2.52106 9.5696V12.9036H4.04458H18.227Z" fill="#FF7480"/>
<path d="M4.0991 8.50781H3.64987L2.49811 9.53835V10.7222H3.21147C3.70167 10.7222 4.0991 10.3248 4.0991 9.8346V8.50781Z" fill="white"/>
<path d="M17.0983 8.63184V9.67769C17.0983 10.0916 17.4339 10.4272 17.8478 10.4272H19.2611C18.8345 9.55682 18.0494 8.89468 17.0983 8.63184Z" fill="white"/>
<path d="M5.61044 14.3271C6.39665 14.3271 7.03399 13.6897 7.03399 12.9035C7.03399 12.1173 6.39665 11.48 5.61044 11.48C4.82424 11.48 4.18689 12.1173 4.18689 12.9035C4.18689 13.6897 4.82424 14.3271 5.61044 14.3271Z" fill="#AFABB0"/>
<path d="M16.5189 14.3271C17.3051 14.3271 17.9424 13.6897 17.9424 12.9035C17.9424 12.1173 17.3051 11.48 16.5189 11.48C15.7327 11.48 15.0953 12.1173 15.0953 12.9035C15.0953 13.6897 15.7327 14.3271 16.5189 14.3271Z" fill="#AFABB0"/>
<path d="M3.71051 8.5076L3.99163 7.85691C4.63838 6.35995 6.11303 5.39062 7.74372 5.39062H11.7497C13.0086 5.39062 14.1972 5.97069 14.9718 6.96306L16.1743 8.50369L3.71051 8.5076Z" fill="#D5F5FB"/>
<path d="M16.3741 8.15456L15.283 6.74136C14.4412 5.65097 13.1161 5 11.7385 5H7.75638C5.95857 5 4.34691 6.07101 3.65039 7.72853L3.44162 8.22546C3.43138 8.23296 3.42142 8.24089 3.41193 8.24941L2.40819 9.14748H0.390667C0.174941 9.14748 0 9.32242 0 9.53814C0 9.75387 0.174941 9.92881 0.390667 9.92881H2.13039V11.0893H1.44437C1.22865 11.0893 1.05371 11.2642 1.05371 11.48C1.05371 11.6957 1.22865 11.8706 1.44437 11.8706H2.13039V12.9035C2.13039 13.1192 2.30533 13.2941 2.52105 13.2941H3.8401C4.0193 14.1073 4.74524 14.7177 5.61146 14.7177C6.47769 14.7177 7.20363 14.1073 7.38286 13.2941H11.9587C12.1745 13.2941 12.3494 13.1192 12.3494 12.9035C12.3494 12.6877 12.1745 12.5128 11.9587 12.5128H9.95463V8.93116H16.1856C16.3636 8.93116 16.5379 8.94746 16.7076 8.97707V9.67781C16.7076 10.3065 17.219 10.818 17.8477 10.818H18.993C19.138 11.1719 19.2186 11.5588 19.2186 11.9643V12.5128H18.2902C18.111 11.6997 17.3851 11.0893 16.5188 11.0893C15.5185 11.0893 14.7046 11.9032 14.7046 12.9035C14.7046 13.9038 15.5185 14.7177 16.5188 14.7177C17.3851 14.7177 18.111 14.1073 18.2902 13.2942H19.6093C19.825 13.2942 19.9999 13.1192 19.9999 12.9035V11.9643C20 9.92416 18.3901 8.25312 16.3741 8.15456ZM16.5189 13.9364C15.9494 13.9364 15.486 13.4731 15.486 12.9035C15.486 12.334 15.9494 11.8707 16.5189 11.8707C17.0884 11.8707 17.5518 12.334 17.5518 12.9035C17.5518 13.4731 17.0884 13.9364 16.5189 13.9364ZM7.75638 5.78133H9.17337V8.14987H4.32089L4.37074 8.03118C4.94506 6.66444 6.27399 5.78133 7.75638 5.78133ZM3.70845 9.0325V9.83439C3.70845 10.1084 3.48553 10.3314 3.21148 10.3314H2.91172V9.74535L3.70845 9.0325ZM5.6115 13.9364C5.04199 13.9364 4.57866 13.4731 4.57866 12.9035C4.57866 12.334 5.04199 11.8707 5.6115 11.8707C6.18106 11.8707 6.64439 12.334 6.64439 12.9035C6.64439 13.4731 6.18106 13.9364 5.6115 13.9364ZM9.17337 12.5128H7.3829C7.20366 11.6997 6.47773 11.0893 5.6115 11.0893C4.74528 11.0893 4.01934 11.6997 3.84014 12.5128H2.91172V11.1127H3.21148C3.91632 11.1127 4.48978 10.5392 4.48978 9.83439V8.9312H9.17337V12.5128ZM9.9547 5.78133H11.7386C12.8758 5.78133 13.9696 6.31874 14.6646 7.21887L15.3834 8.14987H9.9547V5.78133ZM17.8478 10.0366C17.6499 10.0366 17.489 9.87568 17.489 9.67781V9.226C17.8911 9.41821 18.2448 9.69629 18.5256 10.0366H17.8478V10.0366Z" fill="black"/>
<path d="M10.8078 9.604C10.5921 9.604 10.4171 9.77894 10.4171 9.99467C10.4171 10.2104 10.5921 10.3853 10.8078 10.3853H11.4643C11.68 10.3853 11.8549 10.2104 11.8549 9.99467C11.8549 9.77894 11.68 9.604 11.4643 9.604H10.8078Z" fill="black"/>
<path d="M13.5216 12.5127C13.4184 12.5127 13.3181 12.5545 13.245 12.6272C13.1723 12.6998 13.1309 12.8006 13.1309 12.9034C13.1309 13.0061 13.1723 13.1069 13.245 13.1796C13.3181 13.2522 13.4184 13.294 13.5216 13.294C13.6243 13.294 13.7251 13.2523 13.7978 13.1796C13.8704 13.1069 13.9123 13.0061 13.9123 12.9034C13.9123 12.8006 13.8705 12.6998 13.7978 12.6272C13.7251 12.5545 13.6243 12.5127 13.5216 12.5127Z" fill="black"/>
</svg>
