<svg width="20" height="20" viewBox="0 0 20 20" fill="none" xmlns="http://www.w3.org/2000/svg">
<g clip-path="url(#clip0_42_17575)">
<path d="M4.99842 9.60841C7.54438 9.60841 9.60829 7.5445 9.60829 4.99854C9.60829 2.45258 7.54438 0.388672 4.99842 0.388672C2.45246 0.388672 0.38855 2.45258 0.38855 4.99854C0.38855 7.5445 2.45246 9.60841 4.99842 9.60841Z" fill="#93E7F8"/>
<path d="M18.2271 18.1859H19.6094V17.2463C19.6094 15.3547 18.078 13.8213 16.189 13.8213H3.67132L2.52112 14.8518V18.1859H4.04464H18.2271Z" fill="#FF7480"/>
<path d="M4.09916 13.79H3.64993L2.49817 14.8206V16.0045H3.21153C3.70174 16.0045 4.09916 15.607 4.09916 15.1168V13.79Z" fill="white"/>
<path d="M17.0984 13.9146V14.9604C17.0984 15.3743 17.4339 15.7099 17.8479 15.7099H19.2612C18.8346 14.8395 18.0495 14.1774 17.0984 13.9146Z" fill="white"/>
<path d="M5.61044 19.6093C6.39665 19.6093 7.03399 18.972 7.03399 18.1858C7.03399 17.3996 6.39665 16.7622 5.61044 16.7622C4.82424 16.7622 4.18689 17.3996 4.18689 18.1858C4.18689 18.972 4.82424 19.6093 5.61044 19.6093Z" fill="#AFABB0"/>
<path d="M16.519 19.6093C17.3052 19.6093 17.9426 18.972 17.9426 18.1858C17.9426 17.3996 17.3052 16.7622 16.519 16.7622C15.7328 16.7622 15.0955 17.3996 15.0955 18.1858C15.0955 18.972 15.7328 19.6093 16.519 19.6093Z" fill="#AFABB0"/>
<path d="M3.71057 13.7903L3.9917 13.1396C4.63844 11.6427 6.1131 10.6733 7.74378 10.6733H11.7498C13.0086 10.6733 14.1972 11.2534 14.9718 12.2458L16.1743 13.7864L3.71057 13.7903Z" fill="#D5F5FB"/>
<path d="M4.99841 9.99652C6.27878 9.9964 7.55958 9.50901 8.53433 8.53425C10.0225 7.04609 10.4196 4.7678 9.52245 2.86501C9.43045 2.66984 9.19765 2.58627 9.00247 2.67827C8.80733 2.77028 8.72369 3.00307 8.81573 3.19825C9.57273 4.80374 9.23761 6.72609 7.98181 7.98177C6.33675 9.62683 3.66006 9.62683 2.015 7.98177C0.369942 6.33671 0.369942 3.66002 2.015 2.01496C3.26248 0.767405 5.17538 0.427915 6.77508 1.1701C6.97092 1.26093 7.20314 1.17581 7.29389 0.980162C7.38468 0.784438 7.29963 0.552147 7.10395 0.461356C5.20796 -0.418269 2.94092 -0.0159606 1.46252 1.46244C-0.487181 3.41214 -0.487181 6.58455 1.46252 8.53429C2.43751 9.50924 3.71772 9.99668 4.99841 9.99652Z" fill="black"/>
<path d="M7.98942 5.39266H8.2732C8.48893 5.39266 8.66387 5.21772 8.66387 5.002C8.66387 4.78627 8.48893 4.61133 8.2732 4.61133H7.98942C7.7737 4.61133 7.59875 4.78627 7.59875 5.002C7.59875 5.21772 7.77366 5.39266 7.98942 5.39266Z" fill="black"/>
<path d="M1.72367 4.604C1.50795 4.604 1.33301 4.77894 1.33301 4.99467C1.33301 5.2104 1.50795 5.38534 1.72367 5.38534H2.00746C2.22318 5.38534 2.39812 5.2104 2.39812 4.99467C2.39812 4.77894 2.22318 4.604 2.00746 4.604H1.72367Z" fill="black"/>
<path d="M4.604 7.9893V8.27308C4.604 8.48881 4.77894 8.66375 4.99467 8.66375C5.2104 8.66375 5.38534 8.48881 5.38534 8.27308V7.9893C5.38534 7.77357 5.2104 7.59863 4.99467 7.59863C4.77894 7.59863 4.604 7.77353 4.604 7.9893Z" fill="black"/>
<path d="M5.3928 2.02057C5.39307 1.8048 5.21836 1.62967 5.00264 1.62939C5.00244 1.62939 5.00229 1.62939 5.00213 1.62939C4.78656 1.62939 4.61174 1.80398 4.61146 2.01955L4.60795 4.80087L3.4783 5.63584C3.3048 5.7641 3.26812 6.00873 3.39633 6.18223C3.47294 6.28587 3.59108 6.34072 3.71082 6.34072C3.79149 6.34072 3.87287 6.3158 3.94276 6.26419L5.23063 5.31229C5.33013 5.23873 5.38893 5.12239 5.38909 4.99862L5.3928 2.02057Z" fill="black"/>
<path d="M8.2581 2.12948C8.36084 2.12948 8.46164 2.08772 8.5343 2.01501C8.60696 1.94231 8.64877 1.84156 8.64877 1.73881C8.64877 1.63607 8.607 1.53527 8.5343 1.46265C8.46164 1.38998 8.36084 1.34814 8.2581 1.34814C8.15535 1.34814 8.05456 1.38995 7.98194 1.46265C7.90927 1.53527 7.86743 1.63607 7.86743 1.73881C7.86743 1.84156 7.90923 1.94235 7.98194 2.01501C8.05456 2.08768 8.15535 2.12948 8.2581 2.12948Z" fill="black"/>
<path d="M16.3741 13.4368L15.283 12.0236C14.4412 10.9332 13.1161 10.2822 11.7385 10.2822H7.75638C5.95857 10.2822 4.34691 11.3532 3.65039 13.0108L3.44162 13.5077C3.43138 13.5152 3.42142 13.5231 3.41193 13.5316L2.40819 14.4297H0.390667C0.174941 14.4297 0 14.6046 0 14.8204C0 15.0361 0.174941 15.211 0.390667 15.211H2.13039V16.3715H1.44437C1.22865 16.3715 1.05371 16.5465 1.05371 16.7622C1.05371 16.9779 1.22865 17.1528 1.44437 17.1528H2.13039V18.1857C2.13039 18.4014 2.30533 18.5764 2.52105 18.5764H3.8401C4.0193 19.3895 4.74524 19.9999 5.61146 19.9999C6.47769 19.9999 7.20363 19.3895 7.38286 18.5764H11.9587C12.1745 18.5764 12.3494 18.4014 12.3494 18.1857C12.3494 17.97 12.1745 17.795 11.9587 17.795H9.95463V14.2134H16.1856C16.3636 14.2134 16.5379 14.2297 16.7076 14.2593V14.96C16.7076 15.5887 17.219 16.1002 17.8477 16.1002H18.993C19.138 16.4541 19.2186 16.841 19.2186 17.2465V17.7951H18.2902C18.111 16.9819 17.3851 16.3716 16.5188 16.3716C15.5185 16.3716 14.7046 17.1854 14.7046 18.1857C14.7046 19.1861 15.5185 20 16.5188 20C17.3851 20 18.111 19.3895 18.2902 18.5764H19.6093C19.825 18.5764 19.9999 18.4015 19.9999 18.1857V17.2465C20 15.2064 18.3901 13.5353 16.3741 13.4368ZM16.5189 19.2186C15.9494 19.2186 15.486 18.7553 15.486 18.1857C15.486 17.6162 15.9494 17.1529 16.5189 17.1529C17.0884 17.1529 17.5518 17.6162 17.5518 18.1857C17.5518 18.7553 17.0884 19.2186 16.5189 19.2186ZM7.75638 11.0636H9.17337V13.4321H4.32089L4.37074 13.3134C4.94506 11.9467 6.27399 11.0636 7.75638 11.0636ZM3.70845 14.3147V15.1166C3.70845 15.3907 3.48553 15.6136 3.21148 15.6136H2.91172V15.0276L3.70845 14.3147ZM5.6115 19.2186C5.04199 19.2186 4.57866 18.7553 4.57866 18.1857C4.57866 17.6162 5.04199 17.1529 5.6115 17.1529C6.18106 17.1529 6.64439 17.6162 6.64439 18.1857C6.64439 18.7553 6.18106 19.2186 5.6115 19.2186ZM9.17337 17.7951H7.3829C7.20366 16.9819 6.47773 16.3716 5.6115 16.3716C4.74528 16.3716 4.01934 16.9819 3.84014 17.7951H2.91172V16.3949H3.21148C3.91632 16.3949 4.48978 15.8215 4.48978 15.1166V14.2134H9.17337V17.7951ZM9.9547 11.0636H11.7386C12.8758 11.0636 13.9696 11.601 14.6646 12.5011L15.3834 13.4321H9.9547V11.0636ZM17.8478 15.3189C17.6499 15.3189 17.489 15.1579 17.489 14.96V14.5082C17.8911 14.7004 18.2448 14.9785 18.5256 15.3188H17.8478V15.3189Z" fill="black"/>
<path d="M10.8078 14.8862C10.5921 14.8862 10.4171 15.0612 10.4171 15.2769C10.4171 15.4926 10.5921 15.6676 10.8078 15.6676H11.4643C11.68 15.6676 11.8549 15.4926 11.8549 15.2769C11.8549 15.0612 11.68 14.8862 11.4643 14.8862H10.8078Z" fill="black"/>
<path d="M13.5215 17.7949C13.4184 17.7949 13.318 17.8367 13.2449 17.9094C13.1723 17.9821 13.1309 18.0828 13.1309 18.1856C13.1309 18.2883 13.1723 18.3891 13.2449 18.4618C13.318 18.5345 13.4184 18.5763 13.5215 18.5763C13.6243 18.5763 13.7251 18.5345 13.7977 18.4618C13.8704 18.3891 13.9122 18.2883 13.9122 18.1856C13.9122 18.0828 13.8704 17.9821 13.7977 17.9094C13.7251 17.8367 13.6243 17.7949 13.5215 17.7949Z" fill="black"/>
</g>
<defs>
<clipPath id="clip0_42_17575">
<rect width="20" height="20" fill="white"/>
</clipPath>
</defs>
</svg>
