<svg width="16" height="16" viewBox="0 0 16 16" fill="none" xmlns="http://www.w3.org/2000/svg">
<path opacity="0.2" d="M4.3999 4.80005H13.9999C14.5303 4.80005 15.039 5.01076 15.4141 5.38584C15.7892 5.76091 15.9999 6.26962 15.9999 6.80005V12.4C15.9999 12.9305 15.7892 13.4392 15.4141 13.8143C15.039 14.1893 14.5303 14.4 13.9999 14.4H4.3999C3.86947 14.4 3.36076 14.1893 2.98569 13.8143C2.61062 13.4392 2.3999 12.9305 2.3999 12.4V6.80005C2.3999 6.26962 2.61062 5.76091 2.98569 5.38584C3.36076 5.01076 3.86947 4.80005 4.3999 4.80005Z" fill="#266FFF"/>
<path fill-rule="evenodd" clip-rule="evenodd" d="M12.8 3.19995H3.19995C2.66952 3.19995 2.16081 3.41066 1.78574 3.78574C1.41066 4.16081 1.19995 4.66952 1.19995 5.19995V10.8C1.19995 11.3304 1.41066 11.8391 1.78574 12.2142C2.16081 12.5892 2.66952 12.8 3.19995 12.8H12.8C13.3304 12.8 13.8391 12.5892 14.2142 12.2142C14.5892 11.8391 14.8 11.3304 14.8 10.8V5.19995C14.8 4.66952 14.5892 4.16081 14.2142 3.78574C13.8391 3.41066 13.3304 3.19995 12.8 3.19995ZM1.99995 5.19995C1.99995 4.88169 2.12638 4.57647 2.35142 4.35142C2.57647 4.12638 2.88169 3.99995 3.19995 3.99995H12.8C13.1182 3.99995 13.4234 4.12638 13.6485 4.35142C13.8735 4.57647 14 4.88169 14 5.19995V10.8C14 11.1182 13.8735 11.4234 13.6485 11.6485C13.4234 11.8735 13.1182 12 12.8 12H3.19995C2.88169 12 2.57647 11.8735 2.35142 11.6485C2.12638 11.4234 1.99995 11.1182 1.99995 10.8V5.19995Z" fill="#266FFF"/>
<path fill-rule="evenodd" clip-rule="evenodd" d="M1.99998 5.19995H14C14.1061 5.19995 14.2078 5.24209 14.2828 5.31711C14.3578 5.39212 14.4 5.49386 14.4 5.59995V6.39995C14.4 6.50604 14.3578 6.60778 14.2828 6.68279C14.2078 6.75781 14.1061 6.79995 14 6.79995H1.99998C1.89389 6.79995 1.79215 6.75781 1.71713 6.68279C1.64212 6.60778 1.59998 6.50604 1.59998 6.39995V5.59995C1.59998 5.49386 1.64212 5.39212 1.71713 5.31711C1.79215 5.24209 1.89389 5.19995 1.99998 5.19995ZM4.79998 7.59995H3.99998C3.7878 7.59995 3.58432 7.68424 3.43429 7.83427C3.28426 7.9843 3.19998 8.18778 3.19998 8.39995V9.19995C3.19998 9.41212 3.28426 9.61561 3.43429 9.76564C3.58432 9.91567 3.7878 9.99995 3.99998 9.99995H4.79998C5.01215 9.99995 5.21563 9.91567 5.36566 9.76564C5.51569 9.61561 5.59998 9.41212 5.59998 9.19995V8.39995C5.59998 8.18778 5.51569 7.9843 5.36566 7.83427C5.21563 7.68424 5.01215 7.59995 4.79998 7.59995ZM3.99998 9.19995V8.39995H4.79998V9.19995H3.99998Z" fill="#266FFF"/>
</svg>
