<svg width="16" height="16" viewBox="0 0 16 16" fill="none" xmlns="http://www.w3.org/2000/svg">
<g clip-path="url(#clip0_38_7835)">
<g clip-path="url(#clip1_38_7835)">
<path d="M12.5763 5.26831C11.692 5.26831 10.844 5.61959 10.2187 6.24485C9.59346 6.87012 9.24219 7.71817 9.24219 8.60243C9.24219 10.7789 11.6845 13.4989 12.5787 13.4989C13.4728 13.4989 15.9128 10.7789 15.9128 8.60243C15.9131 8.1643 15.827 7.73042 15.6594 7.32561C15.4918 6.9208 15.246 6.55302 14.9361 6.24333C14.6262 5.93364 14.2582 5.68811 13.8533 5.5208C13.4484 5.3535 13.0144 5.26769 12.5763 5.26831ZM12.5763 10.1554C12.2616 10.1558 11.9539 10.0629 11.692 9.88845C11.4301 9.71396 11.2259 9.46571 11.1051 9.17511C10.9844 8.88451 10.9525 8.56462 11.0136 8.25592C11.0747 7.94722 11.2261 7.66359 11.4484 7.4409C11.6708 7.21822 11.9542 7.0665 12.2628 7.00493C12.5714 6.94337 12.8913 6.97473 13.1821 7.09505C13.4729 7.21537 13.7214 7.41924 13.8963 7.68086C14.0712 7.94248 14.1645 8.2501 14.1645 8.56478C14.1645 8.98623 13.9973 9.39044 13.6995 9.68867C13.4017 9.98689 12.9977 10.1547 12.5763 10.1554Z" fill="#344054"/>
<path d="M12.2496 15.5765H12.1978C5.6331 14.7341 5.44251 14.6753 4.19781 14.4C2.85663 14.0965 1.81899 13.753 1.13899 13.3271C0.27075 12.7812 -0.00925004 12.1812 -0.00925004 11.593C-0.010425 11.4078 0.0263401 11.2244 0.0987777 11.0541C0.171215 10.8837 0.277789 10.73 0.411926 10.6024C0.703626 10.3392 1.04644 10.1389 1.41899 10.0141C2.17663 9.72238 3.5084 9.52944 4.37428 9.38355C5.85428 9.1365 7.76252 8.88238 7.76252 7.97179C7.76252 7.75297 7.50134 7.42826 7.05663 7.24708C6.40538 7.0393 5.7391 6.88198 5.06369 6.7765C5.04562 6.77387 5.02823 6.76771 5.01254 6.75836C4.99684 6.74902 4.98314 6.73668 4.97222 6.72204C4.96129 6.7074 4.95336 6.69075 4.94887 6.67305C4.94438 6.65534 4.94342 6.63692 4.94604 6.61885C4.94867 6.60077 4.95483 6.58339 4.96418 6.5677C4.97352 6.552 4.98586 6.5383 5.0005 6.52737C5.01514 6.51645 5.03179 6.50852 5.04949 6.50403C5.0672 6.49953 5.08562 6.49857 5.10369 6.5012C5.9884 6.58355 8.24252 6.90591 8.24252 7.99532C8.24972 8.14656 8.22158 8.29739 8.16031 8.43585C8.09904 8.57431 8.00635 8.69659 7.88957 8.79297C7.61959 9.02218 7.30692 9.19571 6.96957 9.30355C6.1546 9.57439 5.31777 9.77435 4.4684 9.9012C3.60598 10.0294 2.757 10.2358 1.93193 10.5177C0.99075 10.873 0.92722 11.2824 0.92722 11.56C0.92722 11.9247 1.17663 12.3153 1.7884 12.6565C2.40016 12.9977 3.13428 13.2094 4.41899 13.4894C5.7531 13.7788 7.51781 13.9459 12.3013 14.3859C12.4592 14.3928 12.6079 14.4621 12.7147 14.5786C12.8215 14.6951 12.8776 14.8492 12.8708 15.0071C12.8639 15.165 12.7946 15.3137 12.6781 15.4204C12.5616 15.5272 12.4075 15.5834 12.2496 15.5765Z" fill="#344054"/>
<path d="M6.81388 3.78573L6.16682 2.39279C6.09623 2.27749 6.03741 2.13161 5.43741 2.02808C5.40917 2.02808 5.37858 2.02808 5.35035 2.01396C5.5747 1.92186 5.76013 1.75473 5.87496 1.54111C5.98979 1.32749 6.0269 1.08063 5.97996 0.842694C5.93302 0.604755 5.80494 0.390489 5.61759 0.236485C5.43023 0.0824814 5.19523 -0.00170898 4.9527 -0.00170898C4.71018 -0.00170898 4.47517 0.0824814 4.28782 0.236485C4.10046 0.390489 3.97238 0.604755 3.92544 0.842694C3.8785 1.08063 3.91562 1.32749 4.03045 1.54111C4.14528 1.75473 4.3307 1.92186 4.55505 2.01396L4.46564 2.02808C3.868 2.13161 3.80682 2.27749 3.73623 2.39279L3.08917 3.78573C3.06981 3.82382 3.05833 3.86543 3.05542 3.90807C3.05252 3.9507 3.05824 3.99348 3.07226 4.03385C3.08628 4.07422 3.10829 4.11135 3.137 4.14301C3.1657 4.17467 3.20049 4.20021 3.2393 4.21811C3.2781 4.23601 3.32012 4.24589 3.36283 4.24717C3.40555 4.24845 3.44808 4.2411 3.48789 4.22555C3.52769 4.21 3.56395 4.18659 3.5945 4.1567C3.62504 4.12681 3.64924 4.09107 3.66564 4.05161L4.10564 3.13161V5.71984C4.10564 5.81969 4.14531 5.91545 4.21591 5.98605C4.28651 6.05665 4.38227 6.09631 4.48211 6.09631C4.58196 6.09631 4.67772 6.05665 4.74832 5.98605C4.81892 5.91545 4.85858 5.81969 4.85858 5.71984V4.70102C4.86749 4.68374 4.88099 4.66924 4.89759 4.65912C4.91419 4.649 4.93326 4.64365 4.9527 4.64365C4.97214 4.64365 4.99121 4.649 5.00782 4.65912C5.02442 4.66924 5.03791 4.68374 5.04682 4.70102V5.72926C5.04682 5.8291 5.08648 5.92486 5.15708 5.99546C5.22769 6.06606 5.32344 6.10573 5.42329 6.10573C5.52314 6.10573 5.61889 6.06606 5.68949 5.99546C5.7601 5.92486 5.79976 5.8291 5.79976 5.72926V3.14102L6.228 4.06102C6.2444 4.10048 6.2686 4.13622 6.29914 4.16611C6.32969 4.196 6.36595 4.21942 6.40575 4.23496C6.44556 4.25051 6.48809 4.25786 6.5308 4.25658C6.57352 4.25531 6.61554 4.24542 6.65434 4.22752C6.69315 4.20963 6.72794 4.18408 6.75664 4.15242C6.78534 4.12076 6.80736 4.08363 6.82138 4.04326C6.8354 4.00289 6.84112 3.96011 6.83822 3.91748C6.83531 3.87484 6.82383 3.83323 6.80447 3.79514L6.81388 3.78573Z" fill="#344054"/>
</g>
</g>
<defs>
<clipPath id="clip0_38_7835">
<rect width="16" height="16" fill="white"/>
</clipPath>
<clipPath id="clip1_38_7835">
<rect width="16" height="16" fill="white"/>
</clipPath>
</defs>
</svg>
