<svg width="20" height="20" viewBox="0 0 20 20" fill="none" xmlns="http://www.w3.org/2000/svg">
<path opacity="0.2" d="M5.5 6H17.5C18.163 6 18.7989 6.26339 19.2678 6.73223C19.7366 7.20107 20 7.83696 20 8.5V15.5C20 16.163 19.7366 16.7989 19.2678 17.2678C18.7989 17.7366 18.163 18 17.5 18H5.5C4.83696 18 4.20107 17.7366 3.73223 17.2678C3.26339 16.7989 3 16.163 3 15.5V8.5C3 7.83696 3.26339 7.20107 3.73223 6.73223C4.20107 6.26339 4.83696 6 5.5 6Z" fill="#266FFF"/>
<path fill-rule="evenodd" clip-rule="evenodd" d="M16 4H4C3.33696 4 2.70107 4.26339 2.23223 4.73223C1.76339 5.20107 1.5 5.83696 1.5 6.5V13.5C1.5 14.163 1.76339 14.7989 2.23223 15.2678C2.70107 15.7366 3.33696 16 4 16H16C16.663 16 17.2989 15.7366 17.7678 15.2678C18.2366 14.7989 18.5 14.163 18.5 13.5V6.5C18.5 5.83696 18.2366 5.20107 17.7678 4.73223C17.2989 4.26339 16.663 4 16 4ZM2.5 6.5C2.5 6.10218 2.65804 5.72064 2.93934 5.43934C3.22064 5.15804 3.60218 5 4 5H16C16.3978 5 16.7794 5.15804 17.0607 5.43934C17.342 5.72064 17.5 6.10218 17.5 6.5V13.5C17.5 13.8978 17.342 14.2794 17.0607 14.5607C16.7794 14.842 16.3978 15 16 15H4C3.60218 15 3.22064 14.842 2.93934 14.5607C2.65804 14.2794 2.5 13.8978 2.5 13.5V6.5Z" fill="#266FFF"/>
<path fill-rule="evenodd" clip-rule="evenodd" d="M2.5 6.5H17.5C17.6326 6.5 17.7598 6.55268 17.8536 6.64645C17.9473 6.74021 18 6.86739 18 7V8C18 8.13261 17.9473 8.25979 17.8536 8.35355C17.7598 8.44732 17.6326 8.5 17.5 8.5H2.5C2.36739 8.5 2.24021 8.44732 2.14645 8.35355C2.05268 8.25979 2 8.13261 2 8V7C2 6.86739 2.05268 6.74021 2.14645 6.64645C2.24021 6.55268 2.36739 6.5 2.5 6.5ZM6 9.5H5C4.73478 9.5 4.48043 9.60536 4.29289 9.79289C4.10536 9.98043 4 10.2348 4 10.5V11.5C4 11.7652 4.10536 12.0196 4.29289 12.2071C4.48043 12.3946 4.73478 12.5 5 12.5H6C6.26522 12.5 6.51957 12.3946 6.70711 12.2071C6.89464 12.0196 7 11.7652 7 11.5V10.5C7 10.2348 6.89464 9.98043 6.70711 9.79289C6.51957 9.60536 6.26522 9.5 6 9.5ZM5 11.5V10.5H6V11.5H5Z" fill="#266FFF"/>
</svg>
