<svg width="16" height="16" viewBox="0 0 16 16" fill="none" xmlns="http://www.w3.org/2000/svg">
<path d="M15.5469 5.84375C15.375 6.01562 15.2083 6.17188 15.0469 6.3125C14.8854 6.45312 14.7135 6.57552 14.5312 6.67969C14.349 6.78385 14.1589 6.85938 13.9609 6.90625C13.763 6.95312 13.5312 6.98177 13.2656 6.99219C13.0885 6.99219 12.9193 6.97656 12.7578 6.94531L9.79688 9.90625C9.86458 10.1042 9.91406 10.3073 9.94531 10.5156C9.97656 10.724 9.99219 10.9323 9.99219 11.1406C9.99219 11.4792 9.95833 11.7865 9.89062 12.0625C9.82292 12.3385 9.72656 12.599 9.60156 12.8438C9.47656 13.0885 9.32031 13.3203 9.13281 13.5391C8.94531 13.7578 8.73958 13.9844 8.51562 14.2188L5.5 11.2031L1.0625 15.6484L0 16L0.351562 14.9375L4.79688 10.5L1.78125 7.48438C2.01042 7.25521 2.23438 7.04948 2.45312 6.86719C2.67188 6.6849 2.90365 6.53125 3.14844 6.40625C3.39323 6.28125 3.65365 6.18229 3.92969 6.10938C4.20573 6.03646 4.51562 6.0026 4.85938 6.00781C5.06771 6.00781 5.27604 6.02344 5.48438 6.05469C5.69271 6.08594 5.89583 6.13542 6.09375 6.20312L9.05469 3.24219C9.02344 3.08073 9.00781 2.91146 9.00781 2.73438C9.00781 2.47917 9.03385 2.25 9.08594 2.04688C9.13802 1.84375 9.21615 1.65104 9.32031 1.46875C9.42448 1.28646 9.54427 1.11719 9.67969 0.960938C9.8151 0.804688 9.97396 0.635417 10.1562 0.453125L15.5469 5.84375Z" fill="#475467"/>
</svg>
